<?xml version="1.0" encoding="UTF-8" standalone="no"?>
<!DOCTYPE svg PUBLIC "-//W3C//DTD SVG 1.1//EN" "http://www.w3.org/Graphics/SVG/1.1/DTD/svg11.dtd">
<svg width="100%" height="100%" viewBox="0 0 550 175" version="1.1" xmlns="http://www.w3.org/2000/svg" xmlns:xlink="http://www.w3.org/1999/xlink" xml:space="preserve" xmlns:serif="http://www.serif.com/" style="fill-rule:evenodd;clip-rule:evenodd;stroke-linejoin:round;stroke-miterlimit:2;">
    <g id="begin" transform="matrix(1.07422,0,0,0.341797,0,0)">
        <rect x="0" y="0" width="512" height="512" style="fill:none;"/>
        <g transform="matrix(0.849969,0,0,2.28988,1.37562,28.5489)">
            <path d="M61.877,196.435L45.767,180.184L47.879,177.335L50.139,179.615C49.788,178.229 49.735,176.805 49.98,175.341C50.225,173.877 50.812,172.52 51.739,171.269C52.771,169.877 53.864,168.986 55.02,168.595C56.176,168.204 57.334,168.275 58.495,168.807C57.716,165.423 58.21,162.539 59.976,160.156C61.358,158.292 62.863,157.305 64.491,157.195C66.12,157.085 67.854,157.958 69.694,159.815L80.753,170.971L78.405,174.138L68.256,163.901C67.164,162.799 66.302,162.109 65.668,161.831C65.035,161.553 64.37,161.537 63.675,161.784C62.979,162.031 62.36,162.52 61.818,163.251C60.839,164.573 60.402,166.05 60.508,167.683C60.615,169.316 61.497,170.969 63.156,172.642L72.515,182.084L70.154,185.269L59.687,174.71C58.474,173.486 57.371,172.827 56.379,172.734C55.388,172.641 54.455,173.185 53.58,174.364C52.916,175.261 52.504,176.294 52.344,177.463C52.185,178.632 52.367,179.78 52.892,180.908C53.418,182.036 54.413,183.339 55.88,184.818L64.238,193.25L61.877,196.435Z" style="fill:rgb(71,71,71);fill-rule:nonzero;"/>
            <path d="M76.227,158.764C73.471,155.473 72.214,152.141 72.456,148.77C72.664,145.96 73.711,143.482 75.595,141.335C77.689,138.948 80.072,137.798 82.742,137.885C85.412,137.971 87.928,139.425 90.292,142.248C92.207,144.536 93.419,146.67 93.928,148.651C94.438,150.632 94.434,152.626 93.918,154.632C93.401,156.637 92.478,158.398 91.149,159.912C89.016,162.343 86.624,163.509 83.973,163.412C81.322,163.315 78.74,161.766 76.227,158.764ZM78.881,155.74C80.787,158.016 82.639,159.236 84.439,159.398C86.238,159.561 87.784,158.907 89.075,157.435C90.356,155.975 90.946,154.191 90.845,152.083C90.743,149.975 89.716,147.755 87.764,145.423C85.923,143.225 84.101,142.047 82.297,141.89C80.493,141.733 78.955,142.379 77.683,143.829C76.391,145.3 75.792,147.084 75.884,149.181C75.977,151.278 76.976,153.464 78.881,155.74Z" style="fill:rgb(71,71,71);fill-rule:nonzero;"/>
            <path d="M105.615,143.662L85.641,130.87L88.542,127.989L100.291,135.861C101.561,136.71 102.834,137.637 104.112,138.642C103.628,137.402 103.094,135.863 102.509,134.027L97.689,118.905L100.514,116.099L108.181,141.114L105.615,143.662Z" style="fill:rgb(71,71,71);fill-rule:nonzero;"/>
            <path d="M124.518,116.214L127.796,114.068C128.614,116.522 128.739,118.864 128.171,121.095C127.603,123.326 126.323,125.296 124.331,127.007C121.822,129.161 119.264,129.968 116.657,129.427C114.05,128.887 111.721,126.99 109.668,123.737C107.544,120.371 106.638,117.12 106.951,113.985C107.264,110.85 108.605,108.266 110.974,106.232C113.267,104.262 115.715,103.564 118.318,104.137C120.921,104.711 123.264,106.649 125.349,109.952C125.475,110.153 125.66,110.459 125.903,110.871L113.112,121.855C114.606,123.96 116.201,125.186 117.897,125.531C119.592,125.876 121.156,125.434 122.588,124.204C123.654,123.289 124.357,122.181 124.699,120.881C125.041,119.58 124.98,118.025 124.518,116.214ZM111.514,118.927L121.091,110.703C119.9,109.131 118.737,108.183 117.603,107.859C115.853,107.348 114.24,107.726 112.765,108.993C111.43,110.139 110.637,111.624 110.385,113.448C110.133,115.272 110.509,117.098 111.514,118.927Z" style="fill:rgb(71,71,71);fill-rule:nonzero;"/>
            <path d="M150.191,102.153L152.269,105.04C151.504,105.86 150.778,106.509 150.088,106.987C148.962,107.768 147.983,108.166 147.15,108.181C146.318,108.196 145.603,107.952 145.005,107.45C144.407,106.949 143.555,105.612 142.448,103.44L136.187,91.153L133.912,92.73L132.477,89.915L134.753,88.337L132.058,83.048L134.037,78.736L137.839,86.197L140.959,84.034L142.393,86.849L139.273,89.013L145.636,101.501C146.162,102.534 146.555,103.16 146.815,103.379C147.074,103.598 147.372,103.709 147.708,103.712C148.044,103.715 148.441,103.557 148.901,103.238C149.246,102.999 149.676,102.638 150.191,102.153Z" style="fill:rgb(71,71,71);fill-rule:nonzero;"/>
            <path d="M154.863,103.275L141.347,72.818L144.553,70.882L149.402,81.81C150.001,78.884 151.44,76.733 153.72,75.356C155.121,74.51 156.481,74.097 157.799,74.117C159.118,74.138 160.252,74.581 161.201,75.448C162.15,76.315 163.105,77.829 164.063,79.989L170.268,93.972L167.063,95.908L160.858,81.925C160.028,80.056 159.077,78.904 158.004,78.472C156.932,78.04 155.76,78.207 154.49,78.974C153.54,79.548 152.774,80.375 152.192,81.455C151.61,82.536 151.359,83.675 151.439,84.874C151.52,86.072 151.944,87.537 152.712,89.268L158.069,101.339L154.863,103.275Z" style="fill:rgb(71,71,71);fill-rule:nonzero;"/>
            <path d="M186.05,77.275L189.667,76.084C189.97,78.694 189.621,81.005 188.621,83.019C187.621,85.032 185.981,86.598 183.701,87.716C180.829,89.125 178.18,89.21 175.754,87.972C173.328,86.734 171.444,84.254 170.102,80.53C168.713,76.677 168.486,73.269 169.42,70.307C170.353,67.345 172.176,65.199 174.887,63.869C177.512,62.581 180.032,62.572 182.448,63.84C184.863,65.109 186.752,67.634 188.115,71.415C188.198,71.645 188.316,71.993 188.469,72.459L173.828,79.641C174.858,82.097 176.163,83.724 177.742,84.523C179.321,85.322 180.929,85.32 182.569,84.515C183.789,83.917 184.695,83.032 185.289,81.861C185.882,80.691 186.136,79.162 186.05,77.275ZM172.863,76.359L183.825,70.981C182.983,69.127 182.043,67.888 181.005,67.263C179.407,66.288 177.763,66.214 176.075,67.043C174.546,67.792 173.477,69.019 172.865,70.723C172.254,72.427 172.253,74.306 172.863,76.359Z" style="fill:rgb(71,71,71);fill-rule:nonzero;"/>
            <path d="M220.44,72.406L219.691,69.395C218.983,72.2 217.371,74.029 214.854,74.881C213.223,75.433 211.594,75.416 209.966,74.83C208.338,74.245 206.914,73.139 205.695,71.513C204.477,69.888 203.564,67.854 202.957,65.413C202.364,63.031 202.167,60.755 202.365,58.585C202.563,56.415 203.214,54.583 204.318,53.088C205.422,51.594 206.815,50.563 208.497,49.993C209.73,49.576 210.903,49.508 212.017,49.788C213.131,50.069 214.111,50.594 214.956,51.364L212.017,39.545L215.465,38.378L223.657,71.317L220.44,72.406ZM206.52,64.207C207.28,67.262 208.4,69.36 209.88,70.499C211.361,71.638 212.852,71.953 214.355,71.445C215.87,70.932 216.977,69.774 217.677,67.97C218.377,66.166 218.358,63.781 217.62,60.815C216.808,57.549 215.673,55.335 214.214,54.173C212.756,53.01 211.237,52.696 209.657,53.23C208.117,53.752 207.012,54.921 206.343,56.739C205.675,58.557 205.734,61.046 206.52,64.207Z" style="fill:rgb(71,71,71);fill-rule:nonzero;"/>
            <path d="M229.19,69.832L224.684,45.549L227.86,44.747L228.543,48.429C229.033,46.502 229.571,45.177 230.155,44.455C230.739,43.733 231.443,43.268 232.266,43.06C233.455,42.76 234.746,42.897 236.138,43.471L235.631,47.596C234.659,47.22 233.741,47.14 232.879,47.358C232.108,47.553 231.465,47.998 230.952,48.694C230.438,49.39 230.139,50.252 230.056,51.278C229.936,52.84 230.037,54.49 230.359,56.228L232.718,68.941L229.19,69.832Z" style="fill:rgb(71,71,71);fill-rule:nonzero;"/>
            <path d="M239.61,54.404C238.984,49.862 239.603,46.294 241.466,43.701C243.024,41.545 245.103,40.223 247.703,39.735C250.594,39.193 253.109,39.854 255.249,41.72C257.388,43.585 258.726,46.466 259.263,50.362C259.698,53.519 259.635,56.078 259.072,58.04C258.51,60.001 257.522,61.628 256.109,62.92C254.696,64.212 253.072,65.03 251.238,65.374C248.294,65.926 245.763,65.272 243.645,63.41C241.526,61.549 240.181,58.547 239.61,54.404ZM243.273,53.717C243.706,56.859 244.618,59.101 246.008,60.443C247.398,61.786 248.984,62.29 250.766,61.956C252.535,61.624 253.899,60.562 254.857,58.771C255.815,56.98 256.073,54.475 255.629,51.257C255.211,48.224 254.303,46.036 252.906,44.695C251.51,43.353 249.933,42.847 248.178,43.177C246.396,43.511 245.025,44.566 244.064,46.342C243.104,48.117 242.84,50.576 243.273,53.717Z" style="fill:rgb(71,71,71);fill-rule:nonzero;"/>
            <path d="M265.893,71.896L263.335,37.659L266.611,37.325L266.851,40.542C267.53,39.205 268.332,38.172 269.257,37.444C270.182,36.716 271.337,36.281 272.723,36.14C274.534,35.956 276.173,36.338 277.639,37.284C279.106,38.231 280.266,39.659 281.12,41.568C281.974,43.478 282.489,45.613 282.665,47.975C282.855,50.508 282.635,52.827 282.008,54.934C281.38,57.041 280.364,58.71 278.96,59.941C277.555,61.172 276.034,61.871 274.396,62.037C273.197,62.159 272.099,61.973 271.103,61.48C270.107,60.986 269.268,60.32 268.588,59.481L269.489,71.53L265.893,71.896ZM267.526,49.843C267.764,53.028 268.493,55.326 269.712,56.736C270.931,58.147 272.327,58.772 273.898,58.612C275.497,58.45 276.806,57.522 277.827,55.829C278.848,54.136 279.235,51.635 278.988,48.325C278.752,45.171 278.019,42.866 276.79,41.41C275.561,39.954 274.173,39.304 272.628,39.461C271.097,39.617 269.804,40.59 268.75,42.38C267.696,44.17 267.288,46.658 267.526,49.843Z" style="fill:rgb(71,71,71);fill-rule:nonzero;"/>
            <path d="M287.897,60.414L286.669,26.147L290.276,25.971L291.504,60.238L287.897,60.414Z" style="fill:rgb(71,71,71);fill-rule:nonzero;"/>
            <path d="M311.671,52.018L315.398,52.582C314.797,55.12 313.697,57.085 312.099,58.478C310.501,59.871 308.465,60.559 305.992,60.542C302.877,60.52 300.413,59.384 298.599,57.134C296.786,54.883 295.889,51.738 295.909,47.698C295.931,43.519 296.869,40.281 298.726,37.985C300.583,35.69 302.982,34.552 305.923,34.572C308.771,34.592 311.091,35.739 312.884,38.013C314.678,40.286 315.564,43.474 315.543,47.576C315.542,47.826 315.534,48.2 315.518,48.699L299.635,48.59C299.755,51.32 300.406,53.414 301.589,54.873C302.771,56.332 304.252,57.067 306.03,57.079C307.353,57.088 308.485,56.691 309.425,55.886C310.365,55.082 311.113,53.792 311.671,52.018ZM299.853,45.129L311.745,45.211C311.595,43.119 311.149,41.549 310.405,40.499C309.264,38.869 307.777,38.048 305.945,38.035C304.288,38.024 302.891,38.661 301.754,39.948C300.618,41.235 299.984,42.962 299.853,45.129Z" style="fill:rgb(71,71,71);fill-rule:nonzero;"/>
            <path d="M327.983,57.279L328.299,61.03C327.271,61.203 326.357,61.259 325.557,61.199C324.249,61.101 323.248,60.784 322.554,60.247C321.861,59.711 321.389,59.039 321.138,58.231C320.888,57.423 320.832,55.758 320.971,53.237L321.757,38.972L319.115,38.774L319.295,35.505L321.937,35.703L322.275,29.563L325.996,27.31L325.519,35.972L329.142,36.243L328.962,39.512L325.339,39.24L324.541,53.739C324.475,54.937 324.496,55.712 324.604,56.064C324.711,56.416 324.903,56.704 325.179,56.928C325.455,57.152 325.859,57.283 326.393,57.323C326.793,57.353 327.323,57.339 327.983,57.279Z" style="fill:rgb(71,71,71);fill-rule:nonzero;"/>
            <path d="M342.616,62.764L347.359,28.916L350.922,29.595L349.22,41.74C351.197,39.81 353.453,39.086 355.986,39.569C357.543,39.866 358.845,40.482 359.893,41.416C360.94,42.351 361.623,43.497 361.941,44.853C362.259,46.21 362.25,48.089 361.913,50.49L359.736,66.028L356.173,65.349L358.351,49.81C358.642,47.732 358.468,46.147 357.829,45.053C357.189,43.959 356.164,43.277 354.752,43.008C353.697,42.807 352.659,42.937 351.639,43.398C350.62,43.86 349.835,44.599 349.286,45.616C348.737,46.634 348.328,48.105 348.058,50.029L346.179,63.443L342.616,62.764Z" style="fill:rgb(71,71,71);fill-rule:nonzero;"/>
            <path d="M380.998,63.669L384.507,65.24C383.411,67.542 381.946,69.15 380.112,70.066C378.278,70.981 376.161,71.091 373.76,70.396C370.737,69.52 368.571,67.74 367.262,65.055C365.953,62.37 365.715,59.067 366.549,55.147C367.413,51.09 368.978,48.2 371.245,46.479C373.512,44.757 376.073,44.309 378.928,45.136C381.692,45.936 383.716,47.687 385.001,50.39C386.286,53.092 386.504,56.433 385.657,60.414C385.606,60.657 385.522,61.018 385.406,61.499L369.991,57.035C369.557,59.722 369.768,61.936 370.623,63.678C371.478,65.42 372.769,66.541 374.495,67.041C375.779,67.413 376.959,67.337 378.035,66.813C379.111,66.289 380.098,65.241 380.998,63.669ZM370.901,53.731L382.442,57.073C382.718,55 382.601,53.35 382.09,52.126C381.309,50.228 380.03,49.022 378.252,48.508C376.643,48.042 375.157,48.278 373.793,49.217C372.429,50.156 371.465,51.661 370.901,53.731Z" style="fill:rgb(71,71,71);fill-rule:nonzero;"/>
            <path d="M387.19,74.064L393.781,50.438L396.871,51.611L395.871,55.193C397.127,53.816 398.163,52.988 398.98,52.707C399.796,52.427 400.605,52.438 401.406,52.742C402.562,53.182 403.618,54.058 404.573,55.372L402.355,58.638C401.677,57.741 400.919,57.134 400.079,56.815C399.329,56.53 398.582,56.538 397.838,56.837C397.093,57.137 396.464,57.706 395.949,58.543C395.17,59.822 394.545,61.307 394.073,62.998L390.622,75.367L387.19,74.064Z" style="fill:rgb(71,71,71);fill-rule:nonzero;"/>
            <path d="M416.35,77.772L419.654,79.862C418.311,81.978 416.679,83.351 414.758,83.98C412.838,84.608 410.726,84.396 408.424,83.342C405.524,82.015 403.575,79.921 402.577,77.06C401.579,74.199 401.712,70.888 402.977,67.127C404.285,63.236 406.16,60.609 408.6,59.247C411.04,57.884 413.629,57.829 416.367,59.082C419.018,60.296 420.83,62.339 421.802,65.214C422.774,68.088 422.618,71.434 421.334,75.253C421.256,75.485 421.132,75.831 420.964,76.29L406.178,69.522C405.448,72.12 405.41,74.348 406.063,76.205C406.717,78.062 407.871,79.37 409.526,80.127C410.759,80.691 411.937,80.795 413.062,80.439C414.187,80.083 415.284,79.194 416.35,77.772ZM407.449,66.385L418.519,71.452C419.024,69.438 419.092,67.785 418.722,66.493C418.159,64.493 417.026,63.103 415.321,62.323C413.777,61.616 412.277,61.625 410.82,62.349C409.363,63.072 408.239,64.418 407.449,66.385Z" style="fill:rgb(71,71,71);fill-rule:nonzero;"/>
            <path d="M440.198,95.689L439.203,99.275C438.201,98.955 437.344,98.58 436.631,98.152C435.466,97.453 434.657,96.695 434.205,95.88C433.753,95.065 433.55,94.228 433.598,93.371C433.645,92.514 434.164,90.962 435.155,88.715L440.762,76.005L438.409,74.592L439.693,71.68L442.047,73.093L444.461,67.622L448.644,67.292L445.239,75.009L448.466,76.947L447.182,79.859L443.954,77.922L438.255,90.839C437.784,91.907 437.538,92.628 437.516,93.001C437.495,93.373 437.572,93.727 437.748,94.061C437.924,94.394 438.25,94.704 438.725,94.989C439.082,95.203 439.573,95.437 440.198,95.689Z" style="fill:rgb(71,71,71);fill-rule:nonzero;"/>
            <path d="M446.087,89.397C448.091,85.434 450.519,83.148 453.372,82.539C455.751,82.039 458.075,82.569 460.344,84.13C462.866,85.865 464.44,88.247 465.066,91.276C465.692,94.305 465.146,97.519 463.428,100.918C462.036,103.672 460.587,105.595 459.081,106.687C457.575,107.778 455.924,108.295 454.13,108.237C452.335,108.18 450.637,107.6 449.037,106.499C446.469,104.732 444.878,102.344 444.266,99.333C443.653,96.323 444.261,93.011 446.087,89.397ZM449.283,91.595C447.898,94.336 447.373,96.741 447.709,98.809C448.044,100.878 448.99,102.447 450.544,103.517C452.087,104.578 453.718,104.776 455.436,104.111C457.153,103.446 458.722,101.709 460.141,98.901C461.479,96.255 461.977,93.895 461.635,91.822C461.294,89.75 460.357,88.186 458.826,87.133C457.271,86.063 455.638,85.854 453.927,86.506C452.217,87.158 450.669,88.854 449.283,91.595Z" style="fill:rgb(71,71,71);fill-rule:nonzero;"/>
            <path d="M473.498,124.488L470.827,122.132L488.554,94.771L491.433,97.311L485.109,107.072C487.478,106.364 489.606,106.843 491.494,108.508C492.539,109.429 493.369,110.547 493.984,111.862C494.599,113.176 494.919,114.544 494.946,115.965C494.972,117.386 494.749,118.875 494.276,120.433C493.803,121.99 493.103,123.484 492.176,124.915C489.975,128.312 487.554,130.303 484.913,130.887C482.272,131.471 479.944,130.875 477.928,129.097C475.923,127.329 474.982,124.965 475.107,122.006L473.498,124.488ZM479.984,114.4C478.444,116.777 477.609,118.738 477.479,120.285C477.265,122.814 477.931,124.76 479.477,126.123C480.736,127.233 482.237,127.555 483.981,127.088C485.724,126.622 487.414,125.125 489.051,122.6C490.727,120.012 491.525,117.714 491.443,115.706C491.361,113.698 490.696,112.145 489.448,111.044C488.19,109.934 486.689,109.613 484.945,110.079C483.202,110.546 481.548,111.986 479.984,114.4Z" style="fill:rgb(71,71,71);fill-rule:nonzero;"/>
            <path d="M504.489,143.553L506.998,146.817C505.123,148.283 503.191,148.936 501.201,148.775C499.211,148.614 497.283,147.586 495.419,145.691C493.07,143.304 491.838,140.567 491.722,137.481C491.606,134.395 492.686,131.329 494.96,128.283C497.314,125.132 499.836,123.393 502.527,123.066C505.218,122.74 507.672,123.703 509.89,125.957C512.037,128.14 513.154,130.775 513.242,133.863C513.329,136.951 512.218,140.042 509.908,143.135C509.768,143.323 509.552,143.6 509.261,143.966L497.285,131.795C495.849,133.955 495.171,136.038 495.252,138.043C495.332,140.049 496.043,141.733 497.383,143.095C498.381,144.11 499.461,144.67 500.624,144.775C501.786,144.881 503.074,144.474 504.489,143.553ZM499.386,129.338L508.353,138.451C509.408,136.752 509.948,135.222 509.972,133.86C510.019,131.756 509.351,130.002 507.97,128.599C506.72,127.328 505.305,126.748 503.724,126.859C502.144,126.969 500.698,127.795 499.386,129.338Z" style="fill:rgb(71,71,71);fill-rule:nonzero;"/>
            <path d="M504.326,156.981L506.445,160.3C505.786,161.316 505.518,162.304 505.643,163.263C505.807,164.553 506.438,165.836 507.537,167.112C508.722,168.488 509.872,169.273 510.988,169.468C512.104,169.664 513.2,169.396 514.276,168.665C514.927,168.211 516.078,167.006 517.729,165.049C515.3,165.288 513.251,164.439 511.583,162.502C509.508,160.093 508.647,157.355 509,154.288C509.353,151.221 510.571,148.466 512.656,146.023C514.089,144.342 515.672,143.094 517.406,142.279C519.139,141.464 520.83,141.244 522.481,141.62C524.131,141.996 525.625,142.959 526.961,144.511C528.742,146.579 529.494,149.124 529.217,152.147L531.028,150.024L533.387,152.764L520.401,167.986C518.062,170.728 516.165,172.393 514.71,172.982C513.256,173.57 511.727,173.594 510.123,173.052C508.52,172.511 506.96,171.36 505.444,169.6C503.643,167.509 502.592,165.348 502.289,163.115C501.987,160.883 502.666,158.838 504.326,156.981ZM515.469,148.86C513.498,151.171 512.453,153.313 512.334,155.288C512.215,157.262 512.748,158.937 513.933,160.312C515.108,161.676 516.544,162.293 518.24,162.161C519.937,162.03 521.747,160.836 523.671,158.581C525.51,156.425 526.487,154.324 526.601,152.278C526.715,150.232 526.194,148.538 525.038,147.196C523.901,145.876 522.474,145.292 520.759,145.446C519.043,145.6 517.28,146.738 515.469,148.86Z" style="fill:rgb(71,71,71);fill-rule:nonzero;"/>
            <path d="M540.669,155.285L543.736,152.021L546.169,155.131L543.103,158.396L540.669,155.285ZM522.019,175.138L537.751,158.391L540.184,161.502L524.452,178.249L522.019,175.138Z" style="fill:rgb(71,71,71);fill-rule:nonzero;"/>
            <path d="M528.19,182.979L544.552,167.074L546.632,169.986L544.305,172.247C547.104,171.902 549.449,173.053 551.341,175.701C552.162,176.851 552.74,178.081 553.075,179.39C553.41,180.699 553.461,181.873 553.228,182.911C552.995,183.949 552.551,184.949 551.898,185.909C551.47,186.528 550.614,187.462 549.33,188.71L539.269,198.49L536.959,195.255L546.911,185.58C548.041,184.481 548.796,183.534 549.176,182.739C549.556,181.943 549.684,181.062 549.56,180.097C549.436,179.131 549.066,178.217 548.449,177.354C547.465,175.976 546.241,175.152 544.776,174.88C543.312,174.608 541.532,175.491 539.437,177.528L530.501,186.214L528.19,182.979Z" style="fill:rgb(71,71,71);fill-rule:nonzero;"/>
        </g>
    </g>
</svg>
