<?xml version="1.0" encoding="UTF-8" standalone="no"?>
<!DOCTYPE svg PUBLIC "-//W3C//DTD SVG 1.1//EN" "http://www.w3.org/Graphics/SVG/1.1/DTD/svg11.dtd">
<svg width="100%" height="100%" viewBox="0 0 480 130" version="1.1" xmlns="http://www.w3.org/2000/svg" xmlns:xlink="http://www.w3.org/1999/xlink" xml:space="preserve" xmlns:serif="http://www.serif.com/" style="fill-rule:evenodd;clip-rule:evenodd;stroke-linejoin:round;stroke-miterlimit:2;">
    <g transform="matrix(1,0,0,1,-3127.72,-1204.63)">
        <g id="game_start_screen" transform="matrix(0.5,0,0,0.325,939.558,1204.63)">
            <rect x="4376.33" y="0" width="960" height="400" style="fill:none;"/>
            <g transform="matrix(0.312517,0,0,0.480796,4327.54,-29.1379)">
                <path d="M587.463,401.068C581.003,410.806 573.414,419.522 564.694,427.216C554.306,436.382 542.618,443.563 529.632,448.757C516.646,453.952 503.278,456.549 489.528,456.549L363.944,456.549C348.972,456.549 335.375,453.417 323.153,447.153C313.51,442.211 305.198,435.605 298.218,427.335L587.463,401.068Z" style="fill:rgb(181,211,237);fill-rule:nonzero;"/>
                <path d="M911.058,371.682L903.403,418.966C902.486,424.16 900.729,429.049 898.132,433.632C895.535,438.216 892.25,442.188 888.278,445.549C884.306,448.91 879.875,451.584 874.986,453.57C870.097,455.556 865.056,456.549 859.861,456.549L846.111,456.549C835.722,456.549 827.396,452.882 821.132,445.549C814.868,438.216 812.5,429.355 814.028,418.966L820.392,379.915L841.326,378.014L834.653,418.966C834.042,423.549 835.188,427.521 838.09,430.882C840.993,434.244 844.736,435.924 849.319,435.924C851.458,435.924 852.833,434.855 853.444,432.716C853.444,430.271 852.375,429.049 850.236,429.049C847.486,429.049 845.271,428.056 843.59,426.07C841.91,424.084 841.222,421.716 841.528,418.966L848.305,377.38L911.058,371.682Z" style="fill:rgb(181,211,237);fill-rule:nonzero;"/>
                <path d="M701.676,390.696L697.153,418.966C696.236,424.16 694.479,429.049 691.882,433.632C689.285,438.216 686,442.188 682.028,445.549C678.056,448.91 673.625,451.584 668.736,453.57C663.847,455.556 658.806,456.549 653.611,456.549L639.861,456.549C629.472,456.549 621.146,452.882 614.882,445.549C608.618,438.216 606.25,429.355 607.778,418.966L611.022,398.928L632.247,397.001L630.236,409.799C629.625,411.938 630.542,413.007 632.986,413.007C635.125,413.007 636.5,411.938 637.111,409.799L639.222,396.367L701.676,390.696Z" style="fill:rgb(181,211,237);fill-rule:nonzero;"/>
                <path d="M1240.31,341.782L1227.9,418.966C1226.38,429.66 1221.41,438.598 1213.01,445.778C1204.6,452.959 1195.06,456.549 1184.36,456.549L1170.61,456.549C1160.22,456.549 1151.9,452.959 1145.63,445.778C1139.37,438.598 1137,429.66 1138.53,418.966L1143.57,388.257L1012.94,388.257L1007.9,418.966C1006.38,429.66 1001.41,438.598 993.007,445.778C984.604,452.959 975.208,456.549 964.819,456.549L951.069,456.549C940.375,456.549 931.896,452.959 925.632,445.778C919.368,438.598 917,429.66 918.528,418.966L926.354,370.293L947.479,368.374L940.069,415.299C939.458,417.744 940.375,418.966 942.819,418.966C944.958,418.966 946.333,417.744 946.944,415.299L954.454,367.741L1240.31,341.782ZM1173.36,436.382C1175.81,436.382 1177.33,435.16 1177.94,432.716C1177.94,430.577 1176.88,429.507 1174.74,429.507C1174.43,429.507 1174.12,429.355 1173.82,429.049C1168.01,428.132 1165.42,424.771 1166.03,418.966L1170.61,391.466C1171.22,389.327 1170.15,388.257 1167.4,388.257C1165.57,388.257 1164.35,389.327 1163.74,391.466L1159.15,418.966C1158.54,423.855 1159.61,427.98 1162.36,431.341C1165.11,434.702 1168.78,436.382 1173.36,436.382Z" style="fill:rgb(181,211,237);fill-rule:nonzero;"/>
                <path d="M1453.84,322.391L1448.36,357.091L1447.9,360.757L1446.07,370.841L1438.28,418.966C1437.36,424.16 1435.6,429.049 1433.01,433.632C1430.41,438.216 1427.12,442.188 1423.15,445.549C1419.18,448.91 1414.83,451.584 1410.09,453.57C1405.35,455.556 1400.39,456.549 1395.19,456.549L1381.44,456.549C1371.06,456.549 1362.73,452.882 1356.46,445.549C1350.2,438.216 1347.83,429.355 1349.36,418.966L1359.44,357.091L1361.74,343.341L1363.72,330.575L1384.05,328.729L1371.36,409.799C1370.75,412.244 1371.67,413.466 1374.11,413.466C1376.56,413.466 1378.08,412.244 1378.69,409.799L1391.49,328.053L1453.84,322.391Z" style="fill:rgb(181,211,237);fill-rule:nonzero;"/>
                <path d="M1774.69,293.254L1764.61,357.091L1764.15,360.757L1762.32,370.841L1754.53,418.966C1753.61,424.16 1751.85,429.049 1749.26,433.632C1746.66,438.216 1743.38,442.188 1739.4,445.549C1735.43,448.91 1731.08,451.584 1726.34,453.57C1721.6,455.556 1716.64,456.549 1711.44,456.549L1697.69,456.549C1687.31,456.549 1678.98,452.882 1672.72,445.549C1666.45,438.216 1664.08,429.355 1665.61,418.966L1675.69,357.091L1677.99,343.341L1684.5,301.444L1704.85,299.596L1687.61,409.799C1687,412.244 1687.92,413.466 1690.36,413.466C1692.81,413.466 1694.33,412.244 1694.94,409.799L1712.29,298.92L1774.69,293.254Z" style="fill:rgb(181,211,237);fill-rule:nonzero;"/>
                <path d="M2132.98,260.717C2136.84,262.544 2140.16,265.182 2142.97,268.632C2148.92,275.966 2151.14,284.827 2149.61,295.216L2147.32,308.966C2145.79,319.66 2140.83,328.674 2132.42,336.007C2124.02,343.341 2114.47,347.007 2103.78,347.007L1976.82,347.007L1975.44,357.091L1974.99,360.299L1973.61,367.632L2141.82,367.632C2152.21,367.632 2160.53,371.299 2166.8,378.632C2173.06,385.966 2175.43,394.827 2173.9,405.216L2171.61,418.966C2170.69,424.16 2168.94,429.049 2166.34,433.632C2163.74,438.216 2160.46,442.188 2156.49,445.549C2152.51,448.91 2148.08,451.584 2143.19,453.57C2138.31,455.556 2133.26,456.549 2128.07,456.549L1908.07,456.549C1897.68,456.549 1889.35,452.882 1883.09,445.549C1876.83,438.216 1874.46,429.355 1875.99,418.966L1886.07,357.091L1888.36,343.341L1897.89,282.066L1918.82,280.166L1898.44,409.799C1897.83,412.244 1898.6,413.466 1900.74,413.466C1903.18,413.466 1904.71,412.244 1905.32,409.799L1925.79,279.532L2132.98,260.717ZM1992.86,278.257C1990.72,278.257 1989.35,279.327 1988.74,281.466C1988.12,283.91 1989.19,285.132 1991.94,285.132L2113.86,285.132C2116,285.132 2117.38,283.91 2117.99,281.466C2118.29,280.549 2118.06,279.785 2117.3,279.174C2116.53,278.563 2115.69,278.257 2114.78,278.257L1992.86,278.257ZM1979.57,388.257C1977.74,388.257 1976.51,389.327 1975.9,391.466C1975.29,393.91 1976.21,395.132 1978.65,395.132L2137.69,395.132C2139.83,395.132 2141.21,393.91 2141.82,391.466C2142.12,390.549 2141.9,389.785 2141.13,389.174C2140.37,388.563 2139.53,388.257 2138.61,388.257L1979.57,388.257Z" style="fill:rgb(181,211,237);fill-rule:nonzero;"/>
                <path d="M2501.03,227.294C2504.2,239.895 2505.16,253.216 2503.9,267.257C2502.38,283.757 2497.79,299.646 2490.15,314.924C2482.51,330.202 2472.28,344.257 2459.44,357.091L2467.69,372.674L2477.32,389.174C2481.9,397.73 2482.51,407.125 2479.15,417.362C2475.79,427.598 2469.38,435.771 2459.9,441.882L2447.07,449.674C2443.4,452.119 2439.66,453.875 2435.84,454.945C2432.02,456.014 2428.28,456.549 2424.61,456.549C2418.5,456.549 2412.92,455.25 2407.88,452.653C2402.84,450.056 2398.94,446.16 2396.19,440.966L2374.19,400.632C2367.78,401.549 2361.51,402.007 2355.4,402.007L2276.11,402.007L2273.36,418.966C2271.83,429.66 2266.87,438.598 2258.47,445.778C2250.06,452.959 2240.67,456.549 2230.28,456.549L2216.53,456.549C2205.83,456.549 2197.35,452.959 2191.09,445.778C2184.83,438.598 2182.46,429.66 2183.99,418.966L2210.23,253.701L2231.27,251.791L2205.99,412.549C2205.38,414.994 2206.29,416.216 2208.74,416.216C2210.88,416.216 2212.25,414.994 2212.86,412.549L2238.24,251.158L2300.9,245.468L2290.32,312.632L2369.61,312.632C2380,312.632 2389.47,308.966 2398.03,301.632C2406.58,294.299 2411.62,285.285 2413.15,274.591C2414.99,264.202 2412.77,255.341 2406.51,248.007C2401.63,242.298 2395.5,238.811 2388.13,237.547L2424.03,234.286C2426.44,237.257 2428.47,240.532 2430.11,244.112C2434.39,253.431 2435.61,263.591 2433.78,274.591C2432.56,282.841 2429.88,290.48 2425.76,297.507C2421.63,304.535 2416.51,310.723 2410.4,316.07C2404.29,321.417 2397.42,325.619 2389.78,328.674C2382.14,331.73 2374.35,333.257 2366.4,333.257L2283.9,333.257C2281.76,333.257 2280.39,334.327 2279.78,336.466C2279.17,338.91 2280.24,340.132 2282.99,340.132L2365.49,340.132C2374.35,340.132 2382.98,338.452 2391.38,335.091C2399.78,331.73 2407.42,327.07 2414.3,321.112C2421.17,315.153 2426.9,308.202 2431.49,300.257C2436.07,292.313 2439.12,283.757 2440.65,274.591C2442.79,262.063 2441.49,250.605 2436.76,240.216C2435.67,237.839 2434.43,235.589 2433.04,233.468L2501.03,227.294ZM2414.53,429.049C2416.67,433.021 2420.1,435.389 2424.84,436.153C2429.58,436.917 2434.08,435.924 2438.36,433.174C2438.67,432.869 2439.12,432.105 2439.74,430.882C2440.04,429.966 2440.04,429.049 2439.74,428.132C2439.12,427.827 2438.74,427.521 2438.59,427.216C2438.44,426.91 2438.21,426.757 2437.9,426.757C2436.68,426.757 2435.76,426.91 2435.15,427.216C2432.71,428.744 2430.57,429.507 2428.74,429.507C2428.43,429.507 2428.12,429.431 2427.82,429.278C2427.51,429.125 2427.21,429.049 2426.9,429.049C2424.46,428.744 2422.47,427.369 2420.94,424.924L2403.99,394.216L2403.99,393.757C2403.07,392.535 2401.54,392.382 2399.4,393.299C2398.79,393.605 2398.18,394.369 2397.57,395.591C2396.96,396.813 2397.11,397.577 2398.03,397.882L2398.03,398.341L2414.53,429.049Z" style="fill:rgb(181,211,237);fill-rule:nonzero;"/>
                <path d="M2824.88,197.885L2824.74,198.966C2822.9,209.66 2817.71,218.598 2809.15,225.778C2800.6,232.959 2791.12,236.549 2780.74,236.549L2612.53,236.549L2611.15,243.882L2608.86,257.632L2735.82,257.632C2746.51,257.632 2754.84,261.299 2760.8,268.632C2766.76,275.966 2768.97,284.827 2767.44,295.216L2765.15,308.966C2763.62,319.66 2758.66,328.674 2750.26,336.007C2741.85,343.341 2732.31,347.007 2721.61,347.007L2594.65,347.007L2593.28,357.091L2592.82,360.299L2591.44,367.632L2759.65,367.632C2770.04,367.632 2778.37,371.299 2784.63,378.632C2790.9,385.966 2793.26,394.827 2791.74,405.216L2789.44,418.966C2788.53,424.16 2786.77,429.049 2784.17,433.632C2781.58,438.216 2778.29,442.188 2774.32,445.549C2770.35,448.91 2765.92,451.584 2761.03,453.57C2756.14,455.556 2751.1,456.549 2745.9,456.549L2525.9,456.549C2515.51,456.549 2507.19,452.882 2500.92,445.549C2494.66,438.216 2492.29,429.355 2493.82,418.966L2503.9,357.091L2506.19,343.341L2519.03,260.841L2521.32,247.091L2524.73,225.141L2545.59,223.247L2516.28,409.799C2515.67,412.244 2516.43,413.466 2518.57,413.466C2521.01,413.466 2522.54,412.244 2523.15,409.799L2552.57,222.614L2824.88,197.885ZM2597.4,388.257C2595.57,388.257 2594.35,389.327 2593.74,391.466C2593.12,393.91 2594.04,395.132 2596.49,395.132L2755.53,395.132C2757.67,395.132 2759.04,393.91 2759.65,391.466C2759.96,390.549 2759.73,389.785 2758.97,389.174C2758.2,388.563 2757.36,388.257 2756.44,388.257L2597.4,388.257ZM2610.69,278.257C2608.56,278.257 2607.18,279.327 2606.57,281.466C2605.96,283.91 2607.03,285.132 2609.78,285.132L2731.69,285.132C2733.83,285.132 2735.21,283.91 2735.82,281.466C2736.12,280.549 2735.9,279.785 2735.13,279.174C2734.37,278.563 2733.53,278.257 2732.61,278.257L2610.69,278.257Z" style="fill:rgb(181,211,237);fill-rule:nonzero;"/>
                <path d="M3082.47,174.492C3089.59,179.949 3096.03,186.12 3101.8,193.007C3113.56,207.063 3122.04,223.41 3127.24,242.049C3132.43,260.688 3133.35,280.702 3129.99,302.091C3126.62,323.48 3119.37,343.57 3108.22,362.362C3097.06,381.153 3083.47,397.5 3067.42,411.403C3051.38,425.306 3033.35,436.306 3013.34,444.403C2993.33,452.5 2972.62,456.549 2951.24,456.549L2834.36,456.549C2823.97,456.549 2815.65,452.882 2809.38,445.549C2803.12,438.216 2800.75,429.355 2802.28,418.966L2804.57,405.216L2832.07,233.341L2837.65,196.725L2858.51,194.83L2824.28,412.091C2823.67,414.535 2824.58,415.757 2827.03,415.757C2829.17,415.757 2830.54,414.535 2831.15,412.091L2865.49,194.197L3082.47,174.492ZM2964.99,367.632C2974.15,367.632 2982.94,365.952 2991.34,362.591C2999.74,359.23 3007.38,354.57 3014.26,348.612C3021.13,342.653 3026.94,335.702 3031.67,327.757C3036.41,319.813 3039.54,311.257 3041.07,302.091C3042.29,292.924 3041.83,284.445 3039.69,276.653C3037.56,268.862 3033.97,261.987 3028.92,256.028C3023.88,250.07 3017.69,245.41 3010.36,242.049C3003.03,238.688 2994.78,237.007 2985.61,237.007L2920.53,237.007L2899.9,367.632L2964.99,367.632ZM3052.07,188.882C3054.21,188.882 3055.58,187.813 3056.19,185.674C3056.5,184.452 3056.27,183.535 3055.51,182.924C3054.74,182.313 3053.9,182.007 3052.99,182.007C3051.15,182.007 3049.93,183.23 3049.32,185.674C3048.71,187.813 3049.62,188.882 3052.07,188.882ZM2960.86,395.132C2973.69,395.132 2986.15,392.688 2998.22,387.799C3010.28,382.91 3021.21,376.264 3030.99,367.862C3040.76,359.459 3048.94,349.605 3055.51,338.299C3062.08,326.994 3066.43,314.924 3068.57,302.091C3071.01,286.507 3069.72,271.994 3064.67,258.549C3059.63,245.105 3051.31,233.952 3039.69,225.091C3038.47,224.174 3036.79,224.48 3034.65,226.007C3033.43,228.146 3033.43,229.827 3034.65,231.049L3035.11,231.507C3045.81,239.452 3053.52,249.612 3058.26,261.987C3062.99,274.362 3064.14,287.73 3061.69,302.091C3059.86,314.007 3055.81,325.237 3049.55,335.778C3043.28,346.32 3035.65,355.487 3026.63,363.278C3017.62,371.07 3007.53,377.181 2996.38,381.612C2985.23,386.042 2973.69,388.257 2961.78,388.257L2893.03,388.257C2891.19,388.257 2889.97,389.327 2889.36,391.466C2888.75,393.91 2889.67,395.132 2892.11,395.132L2960.86,395.132Z" style="fill:rgb(181,211,237);fill-rule:nonzero;"/>
            </g>
            <g transform="matrix(0.355393,0,0,0.546758,4317.49,-215.028)">
                <g transform="matrix(0.879358,0,0,0.879358,-4.1205,323.646)">
                    <path d="M298.218,427.335C296.351,425.122 294.579,422.791 292.903,420.341C290.458,416.063 289.16,411.48 289.007,406.591C288.854,401.702 289.465,396.813 290.84,391.924C292.215,387.035 294.507,382.452 297.715,378.174C300.924,373.896 304.819,370.23 309.403,367.174L323.153,358.007C329.264,353.73 335.757,351.209 342.632,350.445C349.507,349.681 356,350.521 362.111,352.966C366.083,355.105 368.528,357.855 369.444,361.216C370.972,365.188 373.722,367.174 377.694,367.174L503.278,367.174C506.333,367.174 509.007,366.181 511.299,364.195C513.59,362.209 515.042,359.688 515.653,356.632C516.264,353.882 515.729,351.514 514.049,349.528C512.368,347.542 510,346.549 506.944,346.549L396.944,346.549C383.194,346.549 370.743,343.952 359.59,338.757C348.438,333.563 339.042,326.382 331.403,317.216C323.764,308.049 318.264,297.431 314.903,285.362C311.542,273.292 310.931,260.382 313.069,246.632C315.208,232.882 319.868,219.973 327.049,207.903C334.229,195.834 343.014,185.292 353.403,176.278C363.792,167.264 375.403,160.16 388.236,154.966C401.069,149.771 414.361,147.174 428.111,147.174L552.778,147.174C567.75,147.174 581.424,150.23 593.799,156.341C606.174,162.452 616.181,171.313 623.819,182.924C628.708,191.785 629.549,201.334 626.34,211.57C623.132,221.806 616.792,230.132 607.319,236.549L594.028,245.716C587.917,249.994 581.424,252.514 574.549,253.278C567.674,254.042 561.181,253.202 555.069,250.757C550.792,248.619 548.194,245.869 547.278,242.507C546.361,238.535 543.611,236.549 539.028,236.549L414.361,236.549C411.611,236.549 409.09,237.542 406.799,239.528C404.507,241.514 403.056,243.882 402.444,246.632C401.833,249.688 402.368,252.209 404.049,254.195C405.729,256.181 407.944,257.174 410.694,257.174L520.694,257.174C534.444,257.174 546.972,259.771 558.278,264.966C569.583,270.16 579.056,277.264 586.694,286.278C594.333,295.292 599.833,305.834 603.194,317.903C606.556,329.973 607.167,342.882 605.028,356.632C602.889,370.382 598.229,383.292 591.049,395.362C589.895,397.301 588.699,399.203 587.463,401.068L298.218,427.335ZM539.944,362.591C540.25,361.674 540.021,360.91 539.257,360.299C538.493,359.688 537.653,359.382 536.736,359.382C534.903,359.382 533.681,360.452 533.069,362.591C532.458,365.035 533.375,366.257 535.819,366.257C537.958,366.257 539.333,365.035 539.944,362.591ZM595.861,195.299C596.472,195.605 597.083,195.757 597.694,195.757C599.833,195.757 601.208,194.688 601.819,192.549C602.125,191.327 601.896,190.41 601.132,189.799C600.368,189.188 599.528,188.882 598.611,188.882C596.778,188.882 595.556,190.105 594.944,192.549C594.944,193.466 595.097,194.077 595.403,194.382L595.861,195.299ZM346.528,380.924C352.944,390.091 361.958,394.674 373.569,394.674L499.153,394.674C506.486,394.674 513.667,392.688 520.694,388.716L521.153,388.716L521.153,388.257C521.458,388.257 521.764,388.105 522.069,387.799C523.597,386.577 524.208,385.202 523.903,383.674C522.681,381.535 521,380.924 518.861,381.841L518.403,382.299L517.944,382.299C517.944,382.605 517.792,382.757 517.486,382.757C512.292,386.119 506.486,387.799 500.069,387.799L374.486,387.799C364.403,387.799 356.917,383.521 352.028,374.966C350.194,371.91 347.292,370.382 343.319,370.382C339.347,370.994 335.833,372.369 332.778,374.507L319.486,383.216L316.736,385.507C315.514,387.035 315.208,388.563 315.819,390.091C317.042,390.702 317.806,391.007 318.111,391.007C319.639,391.007 320.556,390.702 320.861,390.091L322.694,389.174L335.986,380.007L336.444,380.007C336.444,379.702 336.521,379.549 336.674,379.549C336.826,379.549 336.903,379.396 336.903,379.091C338.736,378.174 340.569,377.869 342.403,378.174C344.236,378.48 345.611,379.396 346.528,380.924ZM340.569,246.632C342.097,236.855 345.458,227.612 350.653,218.903C355.847,210.195 362.264,202.556 369.903,195.987C377.542,189.417 386.021,184.223 395.34,180.403C404.66,176.584 414.208,174.674 423.986,174.674L548.653,174.674C559.347,174.674 569.278,176.966 578.444,181.549C580.278,182.771 581.806,182.16 583.028,179.716C583.639,178.494 583.792,177.577 583.486,176.966C583.486,176.355 583.181,175.744 582.569,175.132L582.111,175.132C572.333,170.244 561.486,167.799 549.569,167.799L424.903,167.799C413.903,167.799 403.285,169.862 393.049,173.987C382.813,178.112 373.569,183.764 365.319,190.945C357.069,198.125 350.194,206.452 344.694,215.924C339.194,225.396 335.528,235.632 333.694,246.632C331.556,259.771 332.625,272.07 336.903,283.528C341.181,294.987 348.056,304.382 357.528,311.716L357.528,312.174L357.986,312.174C359.208,313.396 360.889,313.244 363.028,311.716C363.639,310.494 363.944,309.577 363.944,308.966C363.944,308.049 363.639,307.285 363.028,306.674L362.111,305.757C353.25,299.035 346.986,290.48 343.319,280.091C339.653,269.702 338.736,258.549 340.569,246.632ZM572.944,388.257C584.861,368.396 588.375,348.23 583.486,327.757C581.042,317.98 576.84,309.348 570.882,301.862C564.924,294.375 557.361,288.494 548.194,284.216C538.722,279.938 528.486,277.799 517.486,277.799L417.111,277.799C415.278,277.799 414.056,278.869 413.444,281.007C412.833,283.452 413.75,284.674 416.194,284.674L516.569,284.674C521.764,284.674 526.653,285.209 531.236,286.278C535.819,287.348 540.403,288.799 544.986,290.632C553.236,294.605 560.035,300.105 565.382,307.132C570.729,314.16 574.396,321.952 576.382,330.507C578.368,339.063 578.597,348.077 577.069,357.549C575.542,367.021 572.028,376.341 566.528,385.507L566.528,385.966C565.306,387.799 565.611,389.327 567.444,390.549C569.583,391.16 571.264,390.549 572.486,388.716C572.486,388.41 572.639,388.257 572.944,388.257Z" style="fill:rgb(181,211,237);fill-rule:nonzero;"/>
                </g>
                <g transform="matrix(0.879358,0,0,0.879358,-4.1205,323.646)">
                    <path d="M611.022,398.928L615.569,370.841L632.986,260.841L644.903,185.216C645.819,180.021 647.576,175.132 650.174,170.549C652.771,165.966 656.056,161.917 660.028,158.403C664,154.889 668.431,152.139 673.319,150.153C678.208,148.167 683.25,147.174 688.444,147.174L702.194,147.174C712.889,147.174 721.292,150.917 727.403,158.403C733.514,165.889 735.806,174.827 734.278,185.216L726.944,233.341L722.819,257.174L839.694,257.174L841.528,247.091L851.153,185.216C852.069,180.021 853.826,175.132 856.424,170.549C859.021,165.966 862.306,161.917 866.278,158.403C870.25,154.889 874.681,152.139 879.569,150.153C884.458,148.167 889.5,147.174 894.694,147.174L908.444,147.174C919.139,147.174 927.542,150.917 933.653,158.403C939.764,165.889 942.056,174.827 940.528,185.216L933.194,233.341L931.361,243.882L913.486,357.091L913.028,360.299L911.194,370.841L911.058,371.682L848.305,377.38L851.611,357.091C852.222,354.646 851.153,353.424 848.403,353.424C846.569,353.424 845.347,354.646 844.736,357.091L841.326,378.014L820.392,379.915L824.111,357.091L825.944,346.549L709.069,346.549L704.944,370.841L702.653,384.591L701.676,390.696L639.222,396.367L672.403,185.216C673.014,182.771 674.389,180.556 676.528,178.57C678.667,176.584 680.958,175.438 683.403,175.132L684.319,174.674L698.069,174.674C700.208,174.674 701.583,173.605 702.194,171.466C702.806,169.021 701.736,167.799 698.986,167.799L685.236,167.799C680.653,167.799 676.451,169.48 672.632,172.841C668.813,176.202 666.444,180.327 665.528,185.216L632.247,397.001L611.022,398.928ZM733.361,281.466C733.972,279.021 733.056,277.799 730.611,277.799C728.472,277.799 727.097,279.021 726.486,281.466C725.875,283.91 726.944,285.132 729.694,285.132C731.528,285.132 732.75,283.91 733.361,281.466ZM904.319,174.674C906.458,174.674 907.833,173.605 908.444,171.466C908.75,170.549 908.521,169.709 907.757,168.945C906.993,168.181 906.153,167.799 905.236,167.799L891.486,167.799C886.903,167.799 882.701,169.48 878.882,172.841C875.063,176.202 872.694,180.327 871.778,185.216L857.569,274.591C857.569,275.507 857.111,276.271 856.194,276.882C855.278,277.494 854.361,277.799 853.444,277.799L758.111,277.799C755.972,277.799 754.597,279.021 753.986,281.466C753.375,283.91 754.444,285.132 757.194,285.132L863.069,285.132L878.653,185.216C878.653,184.91 878.958,184.452 879.569,183.841C880.181,181.396 881.403,179.41 883.236,177.882C885.069,176.355 887.208,175.438 889.653,175.132C889.958,175.132 890.111,175.056 890.111,174.903C890.111,174.75 890.264,174.674 890.569,174.674L904.319,174.674Z" style="fill:rgb(181,211,237);fill-rule:nonzero;"/>
                </g>
                <g transform="matrix(0.879358,0,0,0.879358,-4.1205,323.646)">
                    <path d="M926.354,370.293L937.319,302.091C940.681,280.702 947.861,260.688 958.861,242.049C969.861,223.41 983.535,207.063 999.882,193.007C1016.23,178.952 1034.41,167.875 1054.42,159.778C1074.44,151.681 1094.99,147.632 1116.07,147.632C1137.46,147.632 1156.94,151.681 1174.51,159.778C1192.08,167.875 1206.74,178.952 1218.51,193.007C1230.27,207.063 1238.75,223.41 1243.94,242.049C1249.14,260.688 1250.06,280.702 1246.69,302.091L1240.31,341.782L954.454,367.741L964.819,302.091C966.347,292.313 969.021,282.612 972.84,272.987C976.66,263.362 981.625,254.119 987.736,245.257C997.819,229.674 1010.12,216.535 1024.63,205.841C1039.15,195.146 1054.5,187.202 1070.69,182.007C1086.89,176.813 1103.16,174.598 1119.51,175.362C1135.85,176.125 1151.21,180.327 1165.57,187.966C1165.88,187.966 1166.18,188.119 1166.49,188.424L1166.94,188.424C1168.47,189.035 1170,188.577 1171.53,187.049C1171.83,186.438 1171.99,185.98 1171.99,185.674C1171.99,185.369 1172.14,184.91 1172.44,184.299C1172.14,183.382 1171.53,182.771 1170.61,182.466C1170.61,182.16 1170.46,182.007 1170.15,182.007C1154.88,173.757 1138.53,169.174 1121.11,168.257C1103.69,167.341 1086.43,169.632 1069.32,175.132C1052.21,180.632 1036.01,189.035 1020.74,200.341C1005.46,211.646 992.472,225.549 981.778,242.049C969.25,260.688 961.306,280.702 957.944,302.091L947.479,368.374L926.354,370.293ZM1180.69,326.382L1184.82,302.091C1186.96,288.341 1186.12,275.278 1182.3,262.903C1178.48,250.528 1171.83,239.91 1162.36,231.049L1162.82,230.591C1161.6,229.98 1160.68,229.674 1160.07,229.674C1159.46,229.98 1159,230.132 1158.69,230.132C1158.39,230.132 1157.93,230.438 1157.32,231.049L1155.94,233.799C1155.94,234.41 1156.4,235.174 1157.32,236.091C1165.88,244.341 1171.99,254.195 1175.65,265.653C1179.32,277.112 1180.08,289.257 1177.94,302.091L1175.65,315.841C1175.04,318.285 1173.82,319.507 1171.99,319.507L1015.69,319.507C1013.25,319.507 1012.03,320.577 1012.03,322.716C1011.42,325.16 1012.18,326.382 1014.32,326.382L1180.69,326.382ZM1195.82,200.799C1195.21,200.188 1194.44,199.882 1193.53,199.882C1191.39,199.882 1190.01,200.952 1189.4,203.091C1189.4,204.313 1189.56,205.23 1189.86,205.841L1190.32,206.299C1191.24,206.91 1192.38,206.91 1193.76,206.299C1195.13,205.688 1195.97,204.619 1196.28,203.091C1196.28,201.869 1196.12,201.105 1195.82,200.799ZM1157.78,298.882C1158.69,290.327 1157.93,282.306 1155.49,274.82C1153.04,267.334 1149.3,260.764 1144.26,255.112C1139.21,249.459 1133.1,245.028 1125.92,241.82C1118.74,238.612 1110.72,237.007 1101.86,237.007C1093,237.007 1084.52,238.612 1076.42,241.82C1068.33,245.028 1060.92,249.459 1054.19,255.112C1047.47,260.764 1041.74,267.334 1037.01,274.82C1032.27,282.306 1028.99,290.327 1027.15,298.882L1157.78,298.882Z" style="fill:rgb(181,211,237);fill-rule:nonzero;"/>
                </g>
                <g transform="matrix(0.879358,0,0,0.879358,-4.1205,323.646)">
                    <path d="M1363.72,330.575L1374.57,260.841L1376.86,247.091L1378.24,237.007L1305.82,237.007C1295.43,237.007 1287.18,233.341 1281.07,226.007C1274.96,218.674 1272.82,209.66 1274.65,198.966L1276.49,185.216C1277.4,180.021 1279.16,175.132 1281.76,170.549C1284.35,165.966 1287.64,161.994 1291.61,158.632C1295.58,155.271 1300.01,152.598 1304.9,150.612C1309.79,148.625 1314.83,147.632 1320.03,147.632L1553.78,147.632C1564.17,147.632 1572.42,151.299 1578.53,158.632C1584.64,165.966 1586.93,174.827 1585.4,185.216L1583.57,198.966C1581.74,209.66 1576.54,218.674 1567.99,226.007C1559.43,233.341 1549.96,237.007 1539.57,237.007L1467.15,237.007L1466.24,243.882L1453.84,322.391L1391.49,328.053L1399.78,275.049C1400.08,273.827 1399.85,272.91 1399.09,272.299C1398.33,271.688 1397.49,271.382 1396.57,271.382C1394.43,271.382 1393.06,272.605 1392.44,275.049L1384.05,328.729L1363.72,330.575ZM1404.82,243.424C1404.82,240.98 1403.75,239.757 1401.61,239.757C1400.08,239.757 1398.71,240.98 1397.49,243.424C1397.49,245.869 1398.56,247.091 1400.69,247.091C1402.53,247.091 1403.9,245.869 1404.82,243.424ZM1303.99,185.216C1304.6,182.466 1306.05,180.098 1308.34,178.112C1310.63,176.125 1313.15,175.132 1315.9,175.132L1540.49,175.132C1542.32,175.132 1543.54,173.91 1544.15,171.466C1544.76,169.327 1543.85,168.257 1541.4,168.257L1316.82,168.257C1311.93,168.257 1307.58,169.862 1303.76,173.07C1299.94,176.278 1297.57,180.327 1296.65,185.216L1294.82,198.966C1294.21,201.41 1295.12,202.632 1297.57,202.632C1300.01,202.632 1301.54,201.41 1302.15,198.966L1303.99,185.216Z" style="fill:rgb(181,211,237);fill-rule:nonzero;"/>
                </g>
                <g transform="matrix(0.879358,0,0,0.879358,-4.1205,323.646)">
                    <path d="M1684.5,301.444L1690.82,260.841L1693.11,247.091L1694.49,237.007L1622.07,237.007C1611.68,237.007 1603.43,233.341 1597.32,226.007C1591.21,218.674 1589.07,209.66 1590.9,198.966L1592.74,185.216C1593.65,180.021 1595.41,175.132 1598.01,170.549C1600.6,165.966 1603.89,161.994 1607.86,158.632C1611.83,155.271 1616.26,152.598 1621.15,150.612C1626.04,148.625 1631.08,147.632 1636.28,147.632L1870.03,147.632C1880.42,147.632 1888.67,151.299 1894.78,158.632C1900.89,165.966 1903.18,174.827 1901.65,185.216L1899.82,198.966C1897.99,209.66 1892.79,218.674 1884.24,226.007C1875.68,233.341 1866.21,237.007 1855.82,237.007L1783.4,237.007L1782.49,243.882L1774.69,293.254L1712.29,298.92L1716.03,275.049C1716.33,273.827 1716.1,272.91 1715.34,272.299C1714.58,271.688 1713.74,271.382 1712.82,271.382C1710.68,271.382 1709.31,272.605 1708.69,275.049L1704.85,299.596L1684.5,301.444ZM1721.07,243.424C1721.07,240.98 1720,239.757 1717.86,239.757C1716.33,239.757 1714.96,240.98 1713.74,243.424C1713.74,245.869 1714.81,247.091 1716.94,247.091C1718.78,247.091 1720.15,245.869 1721.07,243.424ZM1620.24,185.216C1620.85,182.466 1622.3,180.098 1624.59,178.112C1626.88,176.125 1629.4,175.132 1632.15,175.132L1856.74,175.132C1858.57,175.132 1859.79,173.91 1860.4,171.466C1861.01,169.327 1860.1,168.257 1857.65,168.257L1633.07,168.257C1628.18,168.257 1623.83,169.862 1620.01,173.07C1616.19,176.278 1613.82,180.327 1612.9,185.216L1611.07,198.966C1610.46,201.41 1611.38,202.632 1613.82,202.632C1616.26,202.632 1617.79,201.41 1618.4,198.966L1620.24,185.216Z" style="fill:rgb(181,211,237);fill-rule:nonzero;"/>
                </g>
                <g transform="matrix(0.879358,0,0,0.879358,-4.1205,323.646)">
                    <path d="M1897.89,282.066L1901.19,260.841L1903.49,247.091L1913.11,185.216C1914.03,180.021 1915.79,175.132 1918.38,170.549C1920.98,165.966 1924.26,161.994 1928.24,158.632C1932.21,155.271 1936.64,152.598 1941.53,150.612C1946.42,148.625 1951.46,147.632 1956.65,147.632L2176.65,147.632C2187.04,147.632 2195.37,151.299 2201.63,158.632C2207.9,165.966 2210.26,174.827 2208.74,185.216L2206.9,198.966C2205.07,209.66 2199.88,218.598 2191.32,225.778C2182.76,232.959 2173.29,236.549 2162.9,236.549L1994.69,236.549L1993.32,243.882L1991.03,257.632L2117.99,257.632C2123.65,257.632 2128.65,258.661 2132.98,260.717L1925.79,279.532L1940.61,185.216C1941.22,182.466 1942.67,180.098 1944.97,178.112C1947.26,176.125 1949.78,175.132 1952.53,175.132L2138.61,175.132C2140.75,175.132 2142.12,173.91 2142.74,171.466C2143.04,170.549 2142.81,169.709 2142.05,168.945C2141.28,168.181 2140.44,167.799 2139.53,167.799L1953.44,167.799C1948.86,167.799 1944.66,169.48 1940.84,172.841C1937.02,176.202 1934.65,180.327 1933.74,185.216L1918.82,280.166L1897.89,282.066ZM2172.99,171.466C2173.6,169.021 2172.68,167.799 2170.24,167.799C2168.1,167.799 2166.72,169.021 2166.11,171.466C2165.5,173.91 2166.57,175.132 2169.32,175.132C2171.15,175.132 2172.38,173.91 2172.99,171.466Z" style="fill:rgb(181,211,237);fill-rule:nonzero;"/>
                </g>
                <g transform="matrix(0.879358,0,0,0.879358,-4.1205,323.646)">
                    <path d="M2210.23,253.701L2221.11,185.216C2222.03,180.021 2223.78,175.132 2226.38,170.549C2228.98,165.966 2232.26,161.994 2236.24,158.632C2240.21,155.271 2244.72,152.598 2249.76,150.612C2254.8,148.625 2259.92,147.632 2265.11,147.632L2395.74,147.632C2411.32,147.632 2425.91,150.382 2439.51,155.882C2453.1,161.382 2464.94,169.327 2475.03,179.716C2485.72,191.021 2493.59,204.16 2498.63,219.132C2499.54,221.819 2500.34,224.539 2501.03,227.294L2433.04,233.468C2428.33,226.319 2421.86,220.624 2413.61,216.382L2414.07,215.924L2413.61,215.924C2411.78,215.313 2410.1,215.924 2408.57,217.757C2407.65,218.674 2407.5,219.591 2408.11,220.507C2408.11,220.813 2408.26,221.119 2408.57,221.424C2408.88,221.73 2409.03,222.035 2409.03,222.341L2409.49,222.341C2415.32,225.54 2420.17,229.522 2424.03,234.286L2388.13,237.547C2386.03,237.187 2383.83,237.007 2381.53,237.007L2302.24,237.007L2300.9,245.468L2238.24,251.158L2248.61,185.216C2249.22,182.466 2250.67,180.098 2252.97,178.112C2255.26,176.125 2257.93,175.132 2260.99,175.132L2391.61,175.132C2397.42,175.132 2403.07,175.591 2408.57,176.507C2408.88,176.507 2409.03,176.66 2409.03,176.966L2409.49,176.966C2411.32,176.966 2412.69,176.049 2413.61,174.216C2413.61,173.605 2413.69,173.146 2413.84,172.841C2413.99,172.535 2413.92,172.077 2413.61,171.466C2412.69,170.549 2412.08,170.091 2411.78,170.091C2405.97,168.869 2399.56,168.257 2392.53,168.257L2261.9,168.257C2257.01,168.257 2252.58,169.938 2248.61,173.299C2244.64,176.66 2242.35,180.632 2241.74,185.216L2231.27,251.791L2210.23,253.701ZM2437.9,187.507C2440.35,187.507 2441.88,186.285 2442.49,183.841C2442.49,182.313 2442.18,181.396 2441.57,181.091C2441.26,181.091 2440.96,180.938 2440.65,180.632L2439.28,180.632C2438.36,180.632 2437.44,180.938 2436.53,181.549C2435.61,182.16 2435.15,182.924 2435.15,183.841C2434.85,184.757 2434.92,185.445 2435.38,185.903L2436.53,187.049C2436.83,187.355 2437.29,187.507 2437.9,187.507Z" style="fill:rgb(181,211,237);fill-rule:nonzero;"/>
                </g>
                <g transform="matrix(0.879358,0,0,0.879358,-4.1205,323.646)">
                    <path d="M2524.73,225.141L2530.94,185.216C2531.86,180.021 2533.62,175.132 2536.22,170.549C2538.81,165.966 2542.1,161.994 2546.07,158.632C2550.04,155.271 2554.47,152.598 2559.36,150.612C2564.25,148.625 2569.29,147.632 2574.49,147.632L2794.49,147.632C2804.88,147.632 2813.2,151.299 2819.47,158.632C2825.73,165.966 2828.1,174.827 2826.57,185.216L2824.88,197.885L2552.57,222.614L2558.44,185.216C2559.06,182.466 2560.51,180.098 2562.8,178.112C2565.09,176.125 2567.61,175.132 2570.36,175.132L2756.44,175.132C2758.58,175.132 2759.96,173.91 2760.57,171.466C2760.88,170.549 2760.65,169.709 2759.88,168.945C2759.12,168.181 2758.28,167.799 2757.36,167.799L2571.28,167.799C2566.69,167.799 2562.49,169.48 2558.67,172.841C2554.85,176.202 2552.49,180.327 2551.57,185.216L2545.59,223.247L2524.73,225.141ZM2790.82,171.466C2791.43,169.021 2790.51,167.799 2788.07,167.799C2785.93,167.799 2784.56,169.021 2783.94,171.466C2783.33,173.91 2784.4,175.132 2787.15,175.132C2788.99,175.132 2790.21,173.91 2790.82,171.466Z" style="fill:rgb(181,211,237);fill-rule:nonzero;"/>
                </g>
                <g transform="matrix(0.879358,0,0,0.879358,-4.1205,323.646)">
                    <path d="M2837.65,196.725L2839.4,185.216C2840.32,180.021 2842.08,175.132 2844.67,170.549C2847.27,165.966 2850.56,161.994 2854.53,158.632C2858.5,155.271 2862.93,152.598 2867.82,150.612C2872.71,148.625 2877.75,147.632 2882.94,147.632L2999.82,147.632C3021.21,147.632 3040.61,151.681 3058.03,159.778C3066.91,163.908 3075.06,168.813 3082.47,174.492L2865.49,194.197L2866.9,185.216C2866.9,184.91 2866.98,184.681 2867.13,184.528C2867.28,184.375 2867.36,184.146 2867.36,183.841C2867.97,181.396 2869.42,179.334 2871.72,177.653C2874.01,175.973 2876.38,175.132 2878.82,175.132L2995.69,175.132C3006.08,175.132 3016.01,176.202 3025.49,178.341L3025.03,178.799L3025.49,178.799C3026.4,178.799 3027.32,178.646 3028.24,178.341C3029.15,178.035 3029.76,177.424 3030.07,176.507C3030.99,174.369 3030.53,172.841 3028.69,171.924C3023.5,170.396 3018.23,169.403 3012.88,168.945C3007.53,168.487 3002.11,168.257 2996.61,168.257L2879.74,168.257C2874.85,168.257 2870.57,169.862 2866.9,173.07C2863.24,176.278 2860.94,180.327 2860.03,185.216L2858.51,194.83L2837.65,196.725Z" style="fill:rgb(181,211,237);fill-rule:nonzero;"/>
                </g>
            </g>
            <g transform="matrix(0.355393,0,0,0.546758,4339.43,-195.342)">
                <g transform="matrix(0.879358,0,0,0.879358,922.566,121.307)">
                    <path d="M815.06,811.704C812.741,812.104 810.367,812.305 807.939,812.305L639.272,812.305L637.897,819.18L635.605,832.93L763.022,832.93C773.411,832.93 781.737,836.596 788.001,843.93C794.265,851.263 796.48,860.124 794.647,870.513L792.814,884.263C790.98,894.958 785.862,903.971 777.46,911.305C769.057,918.638 759.661,922.305 749.272,922.305L621.855,922.305L620.022,932.388L619.564,936.055L617.73,946.138L610.397,994.263C608.564,1004.96 603.446,1013.97 595.043,1021.31C586.64,1028.64 577.244,1032.31 566.855,1032.31L553.105,1032.31C542.411,1032.31 533.932,1028.64 527.668,1021.31C521.404,1013.97 519.189,1004.96 521.022,994.263L530.647,932.388L532.939,918.638L545.772,836.138L548.064,822.388L553.771,785.698L574.039,787.715L543.022,985.096C542.411,987.541 543.48,988.763 546.23,988.763C548.064,988.763 549.286,987.541 549.897,985.096L580.808,788.389L815.06,811.704ZM637.439,853.555C635.605,853.555 634.383,854.624 633.772,856.763C633.161,859.208 634.078,860.43 636.522,860.43L758.897,860.43C760.73,860.43 761.953,859.208 762.564,856.763C763.175,854.624 762.258,853.555 759.814,853.555L637.439,853.555Z" style="fill:rgb(181,211,237);fill-rule:nonzero;"/>
                </g>
                <g transform="matrix(0.879358,0,0,0.879358,922.566,121.307)">
                    <path d="M946.399,824.776L928.022,941.555L927.564,943.388L1051.31,943.388C1062.01,943.388 1070.41,947.055 1076.52,954.388C1082.63,961.721 1084.92,970.583 1083.4,980.971L1081.11,994.721C1080.19,999.916 1078.43,1004.81 1075.84,1009.39C1073.24,1013.97 1069.95,1017.94 1065.98,1021.31C1062.01,1024.67 1057.58,1027.34 1052.69,1029.33C1047.8,1031.31 1042.76,1032.31 1037.56,1032.31L862.48,1032.31C851.786,1032.31 843.307,1028.64 837.043,1021.31C830.779,1013.97 828.411,1005.11 829.939,994.721L858.322,816.01L878.654,818.033L852.855,980.971C852.855,983.416 853.925,984.638 856.064,984.638C858.508,984.638 859.73,983.416 859.73,980.971L885.422,818.707L946.399,824.776ZM923.897,967.221C924.508,965.083 923.592,964.013 921.147,964.013C919.008,964.013 917.633,965.083 917.022,967.221C916.717,968.138 916.946,968.978 917.71,969.742C918.474,970.506 919.314,970.888 920.23,970.888C922.064,970.888 923.286,969.666 923.897,967.221ZM1047.19,970.888C1052.99,970.888 1055.9,973.791 1055.9,979.596L1055.9,980.971C1055.9,983.416 1056.81,984.638 1058.65,984.638C1059.56,984.638 1060.48,984.256 1061.4,983.492C1062.31,982.728 1062.77,981.888 1062.77,980.971C1063.69,976.083 1062.7,972.034 1059.79,968.826C1056.89,965.617 1052.99,964.013 1048.11,964.013L946.355,964.013C944.217,964.013 942.842,965.083 942.23,967.221C941.925,968.138 942.154,968.978 942.918,969.742C943.682,970.506 944.522,970.888 945.439,970.888L1047.19,970.888Z" style="fill:rgb(181,211,237);fill-rule:nonzero;"/>
                </g>
                <g transform="matrix(0.879358,0,0,0.879358,922.566,121.307)">
                    <path d="M2017.32,931.364C2016.47,932.17 2015.6,932.969 2014.73,933.763L1918.02,1018.56C1909.47,1027.72 1899.23,1032.31 1887.31,1032.31L1873.56,1032.31C1861.65,1032.31 1852.48,1027.72 1846.06,1018.56L1784.65,942.471L1698.02,1018.56C1689.47,1027.72 1679.23,1032.31 1667.31,1032.31L1653.56,1032.31C1647.76,1032.31 1642.41,1031.08 1637.52,1028.64C1632.63,1026.19 1628.81,1022.83 1626.06,1018.56L1557.31,933.763C1547.54,921.541 1540.81,907.867 1537.15,892.742C1536.4,889.659 1535.78,886.541 1535.29,883.387L1557.49,885.597C1560.87,898.018 1566.46,909.185 1574.27,919.096L1639.81,999.763L1640.27,999.763C1640.88,1001.6 1642.41,1001.6 1644.86,999.763C1645.16,999.458 1645.62,998.694 1646.23,997.471C1646.23,996.555 1646.08,995.791 1645.77,995.18C1645.47,995.18 1645.31,995.027 1645.31,994.721L1579.77,914.513C1572.98,906.085 1567.99,896.69 1564.83,886.327L1650.12,894.817L1676.94,927.805L1707.54,900.532L1732.99,903.065L1719.11,915.43C1717.88,916.652 1717.27,917.569 1717.27,918.18C1717.27,919.402 1717.58,920.166 1718.19,920.471C1719.72,922.305 1721.4,922.305 1723.23,920.471L1741.8,903.941L1889.49,918.641L1896.94,927.805L1905.44,920.229L2017.32,931.364ZM1859.81,999.763C1861.04,1001.6 1862.72,1001.6 1864.86,999.763C1865.16,999.763 1865.62,998.999 1866.23,997.471C1866.23,996.555 1865.92,995.791 1865.31,995.18L1816.73,935.138L1815.81,934.221C1815.2,932.999 1813.67,932.999 1811.23,934.221C1810.62,934.833 1810.31,935.596 1810.31,936.513C1809.4,937.43 1809.4,938.194 1810.31,938.805C1810.31,939.416 1810.47,939.721 1810.77,939.721L1859.81,999.763ZM1698.48,942.471C1699.09,941.86 1699.4,941.096 1699.4,940.18C1699.7,939.263 1699.47,938.499 1698.71,937.888C1697.95,937.277 1697.11,936.971 1696.19,936.971C1694.97,936.971 1694.2,937.277 1693.9,937.888L1693.44,937.888C1693.13,938.194 1692.67,938.958 1692.06,940.18C1691.76,941.708 1692.29,942.777 1693.67,943.388C1695.04,943.999 1696.34,943.846 1697.56,942.93C1697.87,942.624 1698.17,942.471 1698.48,942.471ZM1918.02,942.471C1918.63,942.166 1918.94,941.402 1918.94,940.18C1919.55,938.041 1918.63,936.971 1916.19,936.971C1914.97,936.971 1914.2,937.277 1913.9,937.888L1913.44,937.888C1913.13,938.194 1912.67,938.958 1912.06,940.18C1912.06,942.624 1913.13,943.846 1915.27,943.846C1916.19,943.846 1916.95,943.541 1917.56,942.93L1918.02,942.471Z" style="fill:rgb(181,211,237);fill-rule:nonzero;"/>
                </g>
            </g>
            <g transform="matrix(0.312517,0,0,0.480796,4656.88,-139.768)">
                <path d="M553.771,785.698L557.689,760.513C559.522,750.124 564.64,741.263 573.043,733.93C581.446,726.596 590.994,722.93 601.689,722.93L821.689,722.93C832.078,722.93 840.404,726.596 846.668,733.93C852.932,741.263 855.147,750.124 853.314,760.513L851.48,774.263C849.647,784.958 844.529,793.971 836.126,801.305C829.687,806.924 822.665,810.391 815.06,811.704L580.808,788.389L585.189,760.513C585.8,757.763 587.251,755.395 589.543,753.409C591.835,751.423 594.508,750.43 597.564,750.43L783.647,750.43C785.48,750.43 786.703,749.208 787.314,746.763C787.925,744.624 787.008,743.555 784.564,743.555L598.48,743.555C593.592,743.555 589.237,745.235 585.418,748.596C581.599,751.958 579.23,755.93 578.314,760.513L574.039,787.715L553.771,785.698ZM818.022,746.763C818.328,745.846 818.099,745.083 817.335,744.471C816.571,743.86 815.73,743.555 814.814,743.555C812.675,743.555 811.3,744.624 810.689,746.763C810.383,747.985 810.612,748.902 811.376,749.513C812.14,750.124 812.98,750.43 813.897,750.43C816.036,750.43 817.411,749.208 818.022,746.763Z" style="fill:rgb(181,211,237);fill-rule:nonzero;"/>
                <path d="M858.322,816.01L867.064,760.971C867.98,755.777 869.737,750.888 872.335,746.305C874.932,741.721 878.217,737.749 882.189,734.388C886.161,731.027 890.668,728.353 895.71,726.367C900.751,724.381 905.869,723.388 911.064,723.388L924.814,723.388C935.203,723.388 943.453,727.055 949.564,734.388C955.675,741.721 957.967,750.583 956.439,760.971L946.399,824.776L885.422,818.707L894.564,760.971C895.175,758.221 896.703,755.853 899.147,753.867C901.592,751.881 904.189,750.888 906.939,750.888L920.689,750.888C922.828,750.888 924.203,749.666 924.814,747.221C925.119,746.305 924.89,745.541 924.126,744.93C923.362,744.319 922.522,744.013 921.605,744.013L907.855,744.013C902.967,744.013 898.612,745.617 894.793,748.826C890.974,752.034 888.605,756.083 887.689,760.971L878.654,818.033L858.322,816.01Z" style="fill:rgb(181,211,237);fill-rule:nonzero;"/>
                <path d="M1707.54,900.532L1740.19,871.43C1749.05,863.791 1754.09,854.93 1755.31,844.846L1768.61,760.971C1770.44,750.277 1775.48,741.263 1783.73,733.93C1791.98,726.596 1801.45,722.93 1812.15,722.93L1825.9,722.93C1836.29,722.93 1844.61,726.596 1850.88,733.93C1857.14,741.263 1859.36,750.277 1857.52,760.971L1844.23,844.846C1842.7,855.235 1844.99,864.096 1851.11,871.43L1889.49,918.641L1741.8,903.941L1756.69,890.68C1763.72,884.569 1769.45,877.541 1773.88,869.596C1778.31,861.652 1781.29,853.402 1782.81,844.846L1796.11,760.971C1796.72,757.916 1798.17,755.395 1800.46,753.409C1802.75,751.423 1805.27,750.43 1808.02,750.43L1821.77,750.43C1823.61,750.43 1824.83,749.36 1825.44,747.221C1826.05,744.777 1825.13,743.555 1822.69,743.555L1808.94,743.555C1804.05,743.555 1799.7,745.235 1795.88,748.596C1792.06,751.958 1789.69,756.083 1788.77,760.971L1775.48,844.846C1773.04,860.43 1765.4,874.027 1752.56,885.638L1732.99,903.065L1707.54,900.532Z" style="fill:rgb(181,211,237);fill-rule:nonzero;"/>
                <path d="M1535.29,883.387C1533.36,871.073 1533.37,858.226 1535.31,844.846L1548.61,760.971C1550.44,750.277 1555.56,741.263 1563.96,733.93C1572.36,726.596 1581.76,722.93 1592.15,722.93L1605.9,722.93C1616.29,722.93 1624.61,726.596 1630.88,733.93C1637.14,741.263 1639.36,750.277 1637.52,760.971L1624.23,844.846C1623.01,854.624 1625.3,863.485 1631.11,871.43L1650.12,894.817L1564.83,886.327C1564.43,885.043 1564.07,883.744 1563.73,882.43C1560.67,870.513 1560.22,857.985 1562.36,844.846L1575.65,760.971C1576.26,757.916 1577.79,755.395 1580.23,753.409C1582.67,751.423 1585.27,750.43 1588.02,750.43L1601.77,750.43C1603.91,750.43 1605.29,749.36 1605.9,747.221C1606.2,746.305 1605.97,745.464 1605.21,744.701C1604.45,743.937 1603.61,743.555 1602.69,743.555L1588.94,743.555C1584.05,743.555 1579.7,745.235 1575.88,748.596C1572.06,751.958 1569.69,756.083 1568.77,760.971L1555.48,844.846C1553.34,858.902 1553.95,872.27 1557.31,884.951C1557.37,885.166 1557.43,885.382 1557.49,885.597L1535.29,883.387Z" style="fill:rgb(181,211,237);fill-rule:nonzero;"/>
                <path d="M1905.44,920.229L1960.19,871.43C1968.44,864.096 1973.33,855.235 1974.86,844.846L1988.15,760.971C1989.98,750.277 1995.1,741.263 2003.5,733.93C2011.9,726.596 2021.45,722.93 2032.15,722.93L2045.9,722.93C2056.29,722.93 2064.61,726.596 2070.88,733.93C2077.14,741.263 2079.36,750.277 2077.52,760.971L2064.23,844.846C2061.79,861.652 2056.29,877.617 2047.73,892.742C2039.73,906.885 2029.59,919.759 2017.32,931.364L1905.44,920.229ZM2041.77,750.43C2043.61,750.43 2044.83,749.36 2045.44,747.221C2046.05,744.777 2045.13,743.555 2042.69,743.555L2028.94,743.555C2024.05,743.555 2019.7,745.235 2015.88,748.596C2012.06,751.958 2009.69,756.083 2008.77,760.971L1995.48,844.846C1993.04,860.43 1985.4,874.027 1972.56,885.638L1939.11,915.43C1937.27,916.958 1936.97,918.638 1938.19,920.471C1940.02,922.305 1941.55,922.305 1942.77,920.471L1976.69,890.68C1991.05,878.152 1999.61,862.874 2002.36,844.846L2015.65,760.971C2016.26,757.916 2017.71,755.395 2020,753.409C2022.29,751.423 2024.97,750.43 2028.02,750.43L2041.77,750.43Z" style="fill:rgb(181,211,237);fill-rule:nonzero;"/>
            </g>
        </g>
    </g>
</svg>
