<?xml version="1.0" encoding="UTF-8" standalone="no"?>
<!DOCTYPE svg PUBLIC "-//W3C//DTD SVG 1.1//EN" "http://www.w3.org/Graphics/SVG/1.1/DTD/svg11.dtd">
<svg width="100%" height="100%" viewBox="0 0 1025 1024" version="1.1" xmlns="http://www.w3.org/2000/svg" xmlns:xlink="http://www.w3.org/1999/xlink" xml:space="preserve" xmlns:serif="http://www.serif.com/" style="fill-rule:evenodd;clip-rule:evenodd;stroke-linecap:round;stroke-linejoin:round;stroke-miterlimit:1.5;">
    <g transform="matrix(1,0,0,1,-2136,0)">
        <g id="player_shattered" transform="matrix(2,0,0,2,-2184,0)">
            <rect x="2160.33" y="0" width="512" height="512" style="fill:none;"/>
            <g transform="matrix(0.5,0,0,0.5,1124.16,-39.8104)">
                <path d="M2806.18,331.732C2809.8,327.576 2813.43,323.41 2817.08,319.252C2819.11,321.034 2821.12,322.848 2823.1,324.693C2817.61,327.027 2811.98,329.371 2806.18,331.732Z" style="fill:rgb(181,211,237);stroke:black;stroke-width:1px;"/>
            </g>
            <g transform="matrix(0.5,0,0,0.5,1179.44,112.692)">
                <path d="M2876.9,628.014C2847.54,685.602 2797.02,730.633 2735.62,752.832C2730.44,738.499 2724.86,721.845 2718.61,701.79C2716.7,695.694 2713.87,687.227 2710.78,678.267C2712.19,675.175 2713.37,672.895 2715.2,670.283C2743.87,629.323 2763.27,600.979 2776.65,581.034C2816.94,599.215 2834.36,610.781 2876.9,628.014Z" style="fill:rgb(181,211,237);stroke:black;stroke-width:1px;"/>
            </g>
            <g transform="matrix(0.5,0,0,0.5,1159.6,12.5483)">
                <path d="M2776.65,581.034C2806.18,537.019 2806.4,533.907 2812.28,526.371C2843.27,486.636 2868.87,449.677 2887.88,420.68C2898.72,449.049 2904.67,479.836 2904.67,512C2904.67,553.75 2894.65,593.179 2876.9,628.014C2834.36,610.781 2816.94,599.215 2776.65,581.034Z" style="fill:rgb(181,211,237);stroke:black;stroke-width:1px;"/>
            </g>
            <g transform="matrix(0.5,0,0,0.5,1143.9,62.2435)">
                <path d="M2776.65,581.034C2763.27,600.979 2743.87,629.323 2715.2,670.283C2713.37,672.895 2712.19,675.175 2710.78,678.267C2703.35,656.665 2694.5,632.189 2693.91,631.112C2683.77,612.477 2674.12,602.667 2664.34,591.471C2671.15,573.119 2676.49,557.631 2681.82,541.217C2695.4,547.331 2709.98,553.523 2725.42,559.582C2746.44,567.832 2762.88,574.819 2776.65,581.034Z" style="fill:rgb(181,211,237);stroke:black;stroke-width:1px;"/>
            </g>
            <g transform="matrix(0.5,0,0,0.5,1122.62,3.15174)">
                <path d="M2882.1,406.823C2884.16,411.373 2886.08,415.993 2887.88,420.68C2868.87,449.677 2843.27,486.636 2812.28,526.371C2806.4,533.907 2806.18,537.019 2776.65,581.034C2762.88,574.819 2746.44,567.832 2725.42,559.582C2709.98,553.523 2695.4,547.331 2681.82,541.217C2686.6,526.51 2691.37,511.06 2697.18,492.138C2737.81,477.009 2770.97,464.861 2793.54,453.138C2834.14,432.059 2862.02,417.385 2882.1,406.823Z" style="fill:rgb(181,211,237);stroke:black;stroke-width:1px;"/>
            </g>
            <g transform="matrix(0.5,0,0,0.5,1160.53,-44.1214)">
                <path d="M2697.18,492.138C2701.58,477.843 2706.56,461.567 2712.59,442.133C2728.22,423.213 2765.86,378.113 2806.18,331.732C2811.98,329.371 2817.61,327.027 2823.1,324.693C2847.84,347.739 2868.01,375.62 2882.1,406.823C2862.02,417.385 2834.14,432.059 2793.54,453.138C2770.97,464.861 2737.81,477.009 2697.18,492.138Z" style="fill:rgb(181,211,237);stroke:black;stroke-width:1px;"/>
            </g>
            <g transform="matrix(0.5,0,0,0.5,1115.26,40.0396)">
                <path d="M2681.82,541.217C2676.49,557.631 2671.15,573.119 2664.34,591.471C2654.7,580.433 2644.94,568.048 2634.46,544.533C2639.64,538.244 2644.7,532.052 2649.59,526.003C2659.57,530.933 2670.34,536.047 2681.82,541.217Z" style="fill:rgb(181,211,237);stroke:black;stroke-width:1px;"/>
            </g>
            <g transform="matrix(0.5,0,0,0.5,1113.9,17.4243)">
                <path d="M2697.18,492.138C2691.37,511.06 2686.6,526.51 2681.82,541.217C2670.34,536.047 2659.57,530.933 2649.59,526.003C2655.96,518.113 2662.05,510.468 2667.75,503.177C2677.94,499.316 2687.76,495.647 2697.18,492.138Z" style="fill:rgb(181,211,237);stroke:black;stroke-width:1px;"/>
            </g>
            <g transform="matrix(0.5,0,0,0.5,1115.81,-14.6419)">
                <path d="M2667.75,503.177C2684.22,482.111 2697.45,463.995 2704.98,451.435C2705.08,451.268 2707.8,447.929 2712.59,442.133C2706.56,461.567 2701.58,477.843 2697.18,492.138C2687.76,495.647 2677.94,499.316 2667.75,503.177Z" style="fill:rgb(181,211,237);stroke:black;stroke-width:1px;"/>
            </g>
            <g transform="matrix(0.5,0,0,0.5,1074.23,101.815)">
                <path d="M2663.69,767.566C2658.72,767.854 2653.71,768 2648.67,768C2633.83,768 2619.28,766.734 2605.13,764.305C2626.51,697.068 2624.16,693.364 2628.34,683.056C2644.69,642.722 2655.7,614.785 2664.34,591.471C2674.12,602.667 2683.77,612.477 2693.91,631.112C2694.5,632.189 2703.35,656.665 2710.78,678.267C2706.36,688.016 2699.72,705.837 2663.69,767.566Z" style="fill:rgb(181,211,237);stroke:black;stroke-width:1px;"/>
            </g>
            <g transform="matrix(0.5,0,0,0.5,1103.22,46.8007)">
                <path d="M2710.78,678.267C2713.87,687.227 2716.7,695.694 2718.61,701.79C2724.86,721.845 2730.44,738.499 2735.62,752.832C2712.95,761.026 2688.8,766.11 2663.69,767.566C2699.72,705.837 2706.36,688.016 2710.78,678.267Z" style="fill:rgb(181,211,237);stroke:black;stroke-width:1px;"/>
            </g>
            <g transform="matrix(0.5,0,0,0.5,1012.41,105.399)">
                <path d="M2514.8,683.385C2541.44,653.651 2576.27,613.874 2609.23,574.787C2606.45,619.425 2604.61,692.517 2597.45,762.865C2569.86,757.254 2543.88,747.201 2520.29,733.487C2517.66,714.78 2516.27,699.218 2514.8,683.385Z" style="fill:rgb(181,211,237);stroke:black;stroke-width:1px;"/>
            </g>
            <g transform="matrix(0.5,0,0,0.5,1012.77,72.2786)">
                <path d="M2520.29,733.487C2509.28,727.085 2498.78,719.886 2488.89,711.968C2496.03,704.219 2504.84,694.504 2514.8,683.385C2516.27,699.218 2517.66,714.78 2520.29,733.487Z" style="fill:rgb(181,211,237);stroke:black;stroke-width:1px;"/>
            </g>
            <g transform="matrix(0.5,0,0,0.5,1052.75,62.8548)">
                <path d="M2609.23,574.787C2617.83,564.592 2626.3,554.444 2634.46,544.533C2644.94,568.048 2654.7,580.433 2664.34,591.471C2655.7,614.785 2644.69,642.722 2628.34,683.056C2624.16,693.364 2626.51,697.068 2605.13,764.305C2602.55,763.863 2599.99,763.383 2597.45,762.865C2604.61,692.517 2606.45,619.425 2609.23,574.787Z" style="fill:rgb(181,211,237);stroke:black;stroke-width:1px;"/>
            </g>
            <g transform="matrix(0.5,0,0,0.5,1111.21,-39.1261)">
                <path d="M2735.1,364.532C2755.57,353.644 2776.85,343.493 2798.65,334.773C2801.2,333.756 2803.7,332.743 2806.18,331.732C2765.86,378.113 2728.22,423.213 2712.59,442.133C2714.99,434.404 2717.55,426.175 2720.31,417.373C2726.37,398.036 2731.19,380.513 2735.1,364.532Z" style="fill:rgb(181,211,237);stroke:black;stroke-width:1px;"/>
            </g>
            <g transform="matrix(0.5,0,0,0.5,1081.21,5.89283)">
                <path d="M2617.32,497.018C2615.9,492.301 2614.47,487.332 2613.01,482.091C2610.33,472.403 2606.35,461.259 2601.37,449.085C2608.71,443.948 2616.44,438.556 2624.52,433C2621.9,456.583 2619.42,478.556 2617.32,497.018Z" style="fill:rgb(181,211,237);stroke:black;stroke-width:1px;"/>
            </g>
            <g transform="matrix(0.5,0,0,0.5,1087.22,-37.9313)">
                <path d="M2624.52,433C2656.6,410.934 2694.24,386.266 2735.1,364.532C2731.19,380.513 2726.37,398.036 2720.31,417.373C2717.55,426.175 2714.99,434.404 2712.59,442.133C2707.8,447.929 2705.08,451.268 2704.98,451.435C2697.45,463.995 2684.22,482.111 2667.75,503.177C2656.24,507.539 2644.27,512.147 2631.89,517.045C2628.47,515.272 2625.17,513.536 2622,511.846C2620.46,507.198 2618.9,502.264 2617.32,497.018C2619.42,478.556 2621.9,456.583 2624.52,433Z" style="fill:rgb(181,211,237);stroke:black;stroke-width:1px;"/>
            </g>
            <g transform="matrix(0.5,0,0,0.5,1101.54,27.3718)">
                <path d="M2667.75,503.177C2662.05,510.468 2655.96,518.113 2649.59,526.003C2643.38,522.936 2637.47,519.939 2631.89,517.045C2644.27,512.147 2656.24,507.539 2667.75,503.177Z" style="fill:rgb(181,211,237);stroke:black;stroke-width:1px;"/>
            </g>
            <g transform="matrix(0.5,0,0,0.5,1099.67,-25.2063)">
                <path d="M2624.74,519.887C2623.84,517.305 2622.92,514.627 2622,511.846C2625.17,513.536 2628.47,515.272 2631.89,517.045C2629.52,517.982 2627.14,518.929 2624.74,519.887Z" style="fill:rgb(181,211,237);stroke:black;stroke-width:1px;"/>
            </g>
            <g transform="matrix(0.5,0,0,0.5,1085.22,10.0456)">
                <path d="M2631.89,517.045C2637.47,519.939 2643.38,522.936 2649.59,526.003C2644.7,532.052 2639.64,538.244 2634.46,544.533C2631.29,537.424 2628.06,529.299 2624.74,519.887C2627.14,518.929 2629.52,517.982 2631.89,517.045Z" style="fill:rgb(181,211,237);stroke:black;stroke-width:1px;"/>
            </g>
            <g transform="matrix(0.5,0,0,0.5,1070.38,4.48954)">
                <path d="M2562.06,478.701C2566.38,480.621 2569.02,481.807 2569.59,482.091C2573.07,483.834 2589.53,494.291 2616,508.623C2615.79,510.484 2615.58,512.296 2615.38,514.058C2597.42,502.496 2579.75,490.714 2562.06,478.701Z" style="fill:rgb(181,211,237);stroke:black;stroke-width:1px;"/>
            </g>
            <g transform="matrix(0.5,0,0,0.5,1030.13,5.40712)">
                <path d="M2485.13,514.834C2518.38,497.755 2548.44,483.28 2559.48,477.558L2562.06,478.701C2579.75,490.714 2597.42,502.496 2615.38,514.058L2614.22,524.128C2588.02,534.776 2560.21,546.745 2531.27,560.433C2519.66,565.924 2508.75,571.127 2498.49,576.058C2497.07,569.516 2495.51,562.62 2493.8,555.324C2490.49,541.215 2487.62,527.727 2485.13,514.834Z" style="fill:rgb(181,211,237);stroke:black;stroke-width:1px;"/>
            </g>
            <g transform="matrix(0.5,0,0,0.5,1005.83,33.6243)">
                <path d="M2498.49,576.058C2463.93,592.665 2436.77,606.189 2415.26,617.227C2407.55,600.16 2401.65,582.097 2397.82,563.288C2400.68,561.656 2403.71,559.858 2406.94,557.879C2429.6,543.977 2458.39,528.564 2485.13,514.834C2487.62,527.727 2490.49,541.215 2493.8,555.324C2495.51,562.62 2497.07,569.516 2498.49,576.058Z" style="fill:rgb(181,211,237);stroke:black;stroke-width:1px;"/>
            </g>
            <g transform="matrix(0.5,0,0,0.5,1109.66,0.242767)">
                <path d="M2615.38,514.058C2615.58,512.296 2615.79,510.484 2616,508.623C2617.95,509.677 2619.95,510.752 2622,511.846C2622.92,514.627 2623.84,517.305 2624.74,519.887C2624.69,519.908 2624.64,519.929 2624.59,519.95C2621.51,517.992 2618.44,516.028 2615.38,514.058Z" style="fill:rgb(181,211,237);stroke:black;stroke-width:1px;"/>
            </g>
            <g transform="matrix(0.5,0,0,0.5,1081.29,9.31734)">
                <path d="M2624.59,519.95C2621.16,521.32 2617.71,522.712 2614.22,524.128C2614.58,520.993 2614.97,517.629 2615.38,514.058C2618.44,516.028 2621.51,517.992 2624.59,519.95Z" style="fill:rgb(181,211,237);stroke:black;stroke-width:1px;"/>
            </g>
            <g transform="matrix(0.5,0,0,0.5,1022.04,55.681)">
                <path d="M2498.49,576.058C2508.75,571.127 2519.66,565.924 2531.27,560.433C2560.21,546.745 2588.02,534.776 2614.22,524.128C2612.79,536.647 2611.76,545.513 2611.31,549.363C2610.52,556.166 2609.85,564.758 2609.23,574.787C2576.27,613.874 2541.44,653.651 2514.8,683.385C2512.18,655.023 2509.28,625.792 2498.49,576.058Z" style="fill:rgb(181,211,237);stroke:black;stroke-width:1px;"/>
            </g>
            <g transform="matrix(0.5,0,0,0.5,963.689,87.3599)">
                <path d="M2514.8,683.385C2504.84,694.504 2496.03,704.219 2488.89,711.968C2457.44,686.797 2432.05,654.367 2415.26,617.227C2436.77,606.189 2463.93,592.665 2498.49,576.058C2509.28,625.792 2512.18,655.023 2514.8,683.385Z" style="fill:rgb(181,211,237);stroke:black;stroke-width:1px;"/>
            </g>
            <g transform="matrix(0.5,0,0,0.5,1107.48,-22.7824)">
                <path d="M2624.59,519.95C2624.64,519.929 2624.69,519.908 2624.74,519.887C2624.77,519.957 2624.8,520.028 2624.82,520.099C2624.74,520.049 2624.66,520 2624.59,519.95Z" style="fill:rgb(181,211,237);stroke:black;stroke-width:1px;"/>
            </g>
            <g transform="matrix(0.5,0,0,0.5,1079.23,20.3237)">
                <path d="M2624.82,520.099C2628.11,529.421 2631.32,537.478 2634.46,544.533C2626.3,554.444 2617.83,564.592 2609.23,574.787C2609.85,564.758 2610.52,556.166 2611.31,549.363C2611.76,545.513 2612.79,536.647 2614.22,524.128C2617.71,522.712 2621.16,521.32 2624.59,519.95C2624.66,520 2624.74,520.049 2624.82,520.099Z" style="fill:rgb(181,211,237);stroke:black;stroke-width:1px;"/>
            </g>
            <g transform="matrix(0.5,0,0,0.5,1071.27,-26.077)">
                <path d="M2559.99,477.295C2561.82,476.339 2563.06,475.656 2563.62,475.279C2574.6,467.902 2587.26,458.962 2601.37,449.085C2606.35,461.259 2610.33,472.403 2613.01,482.091C2614.47,487.332 2615.9,492.301 2617.32,497.018L2616,508.623C2589.53,494.291 2573.07,483.834 2569.59,482.091C2569.02,481.807 2566.38,480.621 2562.06,478.701C2561.37,478.233 2560.68,477.764 2559.99,477.295Z" style="fill:rgb(181,211,237);stroke:black;stroke-width:1px;"/>
            </g>
            <g transform="matrix(0.5,0,0,0.5,1092,0)">
                <path d="M2562.06,478.701C2561.26,478.345 2560.4,477.964 2559.48,477.558C2559.66,477.468 2559.83,477.381 2559.99,477.295C2560.68,477.764 2561.37,478.233 2562.06,478.701Z" style="fill:rgb(181,211,237);stroke:black;stroke-width:1px;"/>
            </g>
            <g transform="matrix(0.5,0,0,0.5,1099.45,5.83077)">
                <path d="M2617.32,497.018C2618.9,502.264 2620.46,507.198 2622,511.846C2619.95,510.752 2617.95,509.677 2616,508.623C2616.42,504.937 2616.86,501.062 2617.32,497.018Z" style="fill:rgb(181,211,237);stroke:black;stroke-width:1px;"/>
            </g>
            <g transform="matrix(0.5,0,0,0.5,1182.34,-102.915)">
                <path d="M2751.11,277.35C2775.27,287.924 2797.49,302.12 2817.08,319.252C2813.43,323.41 2809.8,327.576 2806.18,331.732C2803.7,332.743 2801.2,333.756 2798.65,334.773C2776.85,343.493 2755.57,353.644 2735.1,364.532C2743.85,328.764 2748.01,300.721 2751.11,277.35Z" style="fill:rgb(181,211,237);stroke:black;stroke-width:1px;"/>
            </g>
            <g transform="matrix(0.5,0,0,0.5,1074.19,-79.8745)">
                <path d="M2642.97,256.062C2644.86,256.021 2646.76,256 2648.67,256C2685.09,256 2719.74,263.62 2751.11,277.35C2748.01,300.721 2743.85,328.764 2735.1,364.532C2694.24,386.266 2656.6,410.934 2624.52,433C2631.04,374.198 2638.43,305.391 2642.97,256.062Z" style="fill:rgb(181,211,237);stroke:black;stroke-width:1px;"/>
            </g>
            <g transform="matrix(0.5,0,0,0.5,1037.31,-74.537)">
                <path d="M2624.52,433C2616.44,438.556 2608.71,443.948 2601.37,449.085C2582.77,403.629 2550.12,343.808 2518.21,291.735C2554.9,269.946 2597.48,257.059 2642.97,256.062C2638.43,305.391 2631.04,374.198 2624.52,433Z" style="fill:rgb(181,211,237);stroke:black;stroke-width:1px;"/>
            </g>
            <g transform="matrix(0.5,0,0,0.5,985.463,-97.1948)">
                <path d="M2466.36,332.35C2481.79,316.699 2499.21,303.023 2518.21,291.735C2550.12,343.808 2582.77,403.629 2601.37,449.085C2587.26,458.962 2574.6,467.902 2563.62,475.279C2563.01,475.689 2561.6,476.464 2559.48,477.558C2543.43,470.438 2510.3,455.868 2473.62,439.684C2468.56,394.7 2467.87,359.636 2466.36,332.35Z" style="fill:rgb(181,211,237);stroke:black;stroke-width:1px;"/>
            </g>
            <g transform="matrix(0.5,0,0,0.5,976.899,-27.0029)">
                <path d="M2473.62,439.684C2453.63,430.863 2432.58,421.562 2412.66,412.727C2425.38,382.556 2443.72,355.326 2466.36,332.35C2467.87,359.636 2468.56,394.7 2473.62,439.684Z" style="fill:rgb(181,211,237);stroke:black;stroke-width:1px;"/>
            </g>
            <g transform="matrix(0.5,0,0,0.5,1055.99,-61.9791)">
                <path d="M2473.62,439.684C2510.3,455.868 2543.43,470.438 2559.48,477.558C2548.44,483.28 2518.38,497.755 2485.13,514.834C2479.77,487.128 2476.15,462.167 2473.62,439.684Z" style="fill:rgb(181,211,237);stroke:black;stroke-width:1px;"/>
            </g>
            <g transform="matrix(0.5,0,0,0.5,1009.78,-5.68858)">
                <path d="M2485.13,514.834C2458.39,528.564 2429.6,543.977 2406.94,557.879C2403.71,559.858 2400.68,561.656 2397.82,563.288C2394.44,546.715 2392.67,529.563 2392.67,512C2392.67,476.806 2399.79,443.26 2412.66,412.727C2432.58,421.562 2453.63,430.863 2473.62,439.684C2476.15,462.167 2479.77,487.128 2485.13,514.834Z" style="fill:rgb(181,211,237);stroke:black;stroke-width:1px;"/>
            </g>
        </g>
    </g>
</svg>
